<?xml version="1.0" encoding="UTF-8" standalone="no"?>
<!DOCTYPE svg PUBLIC "-//W3C//DTD SVG 1.1//EN"
 "http://www.w3.org/Graphics/SVG/1.1/DTD/svg11.dtd">
<!-- Generated by graphviz version 14.1.5 (20260411.2331)
 -->
<!-- Title: navigator Pages: 1 -->
<svg width="264pt" height="260pt"
 viewBox="0.00 0.00 264.00 260.00" xmlns="http://www.w3.org/2000/svg" xmlns:xlink="http://www.w3.org/1999/xlink">
<g id="graph0" class="graph" transform="scale(1 1) rotate(0) translate(4 256)">
<title>navigator</title>
<polygon fill="white" stroke="none" points="-4,4 -4,-256 260.25,-256 260.25,4 -4,4"/>
<!-- mapper&#45;core/nyx&#45;navigator/src/api.rs -->
<g id="node1" class="node">
<title>mapper&#45;core/nyx&#45;navigator/src/api.rs</title>
<polygon fill="#ff3333" stroke="#660000" stroke-width="4" points="165.25,-144 111.25,-144 111.25,-108 165.25,-108 165.25,-144"/>
<text xml:space="preserve" text-anchor="middle" x="138.25" y="-127.75" font-family="Times,serif" font-size="10.00">api.rs</text>
<text xml:space="preserve" text-anchor="middle" x="138.25" y="-116.5" font-family="Times,serif" font-size="10.00">56 fn</text>
</g>
<!-- mapper&#45;core/nyx&#45;navigator/src/layers.rs -->
<g id="node2" class="node">
<title>mapper&#45;core/nyx&#45;navigator/src/layers.rs</title>
<polygon fill="#ff9966" stroke="#333333" points="255.75,-198 201.75,-198 201.75,-162 255.75,-162 255.75,-198"/>
<text xml:space="preserve" text-anchor="middle" x="228.75" y="-181.75" font-family="Times,serif" font-size="10.00">layers.rs</text>
<text xml:space="preserve" text-anchor="middle" x="228.75" y="-170.5" font-family="Times,serif" font-size="10.00">15 fn</text>
</g>
<!-- mapper&#45;core/nyx&#45;navigator/src/api.rs&#45;&gt;mapper&#45;core/nyx&#45;navigator/src/layers.rs -->
<g id="edge1" class="edge">
<title>mapper&#45;core/nyx&#45;navigator/src/api.rs&#45;&gt;mapper&#45;core/nyx&#45;navigator/src/layers.rs</title>
<path fill="none" stroke="#666666" d="M166.77,-142.79C174.72,-147.64 183.51,-153.01 191.89,-158.12"/>
<polygon fill="#666666" stroke="#666666" points="189.81,-160.95 200.17,-163.17 193.46,-154.97 189.81,-160.95"/>
</g>
<!-- mapper&#45;core/nyx&#45;navigator/src/mapper.rs -->
<g id="node3" class="node">
<title>mapper&#45;core/nyx&#45;navigator/src/mapper.rs</title>
<polygon fill="#ff9966" stroke="#333333" points="256.25,-63 201.25,-63 201.25,-27 256.25,-27 256.25,-63"/>
<text xml:space="preserve" text-anchor="middle" x="228.75" y="-46.75" font-family="Times,serif" font-size="10.00">mapper.rs</text>
<text xml:space="preserve" text-anchor="middle" x="228.75" y="-35.5" font-family="Times,serif" font-size="10.00">37 fn</text>
</g>
<!-- mapper&#45;core/nyx&#45;navigator/src/api.rs&#45;&gt;mapper&#45;core/nyx&#45;navigator/src/mapper.rs -->
<g id="edge2" class="edge">
<title>mapper&#45;core/nyx&#45;navigator/src/api.rs&#45;&gt;mapper&#45;core/nyx&#45;navigator/src/mapper.rs</title>
<path fill="none" stroke="#666666" d="M160.67,-106.39C172.31,-95.74 186.85,-82.43 199.41,-70.93"/>
<polygon fill="#666666" stroke="#666666" points="201.61,-73.67 206.62,-64.34 196.88,-68.51 201.61,-73.67"/>
</g>
<!-- mapper&#45;core/nyx&#45;navigator/src/sync.rs -->
<g id="node4" class="node">
<title>mapper&#45;core/nyx&#45;navigator/src/sync.rs</title>
<polygon fill="#ff9966" stroke="#333333" points="255.75,-144 201.75,-144 201.75,-108 255.75,-108 255.75,-144"/>
<text xml:space="preserve" text-anchor="middle" x="228.75" y="-127.75" font-family="Times,serif" font-size="10.00">sync.rs</text>
<text xml:space="preserve" text-anchor="middle" x="228.75" y="-116.5" font-family="Times,serif" font-size="10.00">9 fn</text>
</g>
<!-- mapper&#45;core/nyx&#45;navigator/src/api.rs&#45;&gt;mapper&#45;core/nyx&#45;navigator/src/sync.rs -->
<g id="edge3" class="edge">
<title>mapper&#45;core/nyx&#45;navigator/src/api.rs&#45;&gt;mapper&#45;core/nyx&#45;navigator/src/sync.rs</title>
<path fill="none" stroke="#666666" d="M166.77,-126C174.11,-126 182.18,-126 189.97,-126"/>
<polygon fill="#666666" stroke="#666666" points="189.95,-129.5 199.95,-126 189.95,-122.5 189.95,-129.5"/>
</g>
<!-- mapper&#45;core/nyx&#45;navigator/src/call_graph.rs -->
<g id="node5" class="node">
<title>mapper&#45;core/nyx&#45;navigator/src/call_graph.rs</title>
<polygon fill="#99ff99" stroke="#333333" points="71.88,-144 3.38,-144 3.38,-108 71.88,-108 71.88,-144"/>
<text xml:space="preserve" text-anchor="middle" x="37.62" y="-127.75" font-family="Times,serif" font-size="10.00">call_graph.rs</text>
<text xml:space="preserve" text-anchor="middle" x="37.62" y="-116.5" font-family="Times,serif" font-size="10.00">16 fn</text>
</g>
<!-- mapper&#45;core/nyx&#45;navigator/src/call_graph.rs&#45;&gt;mapper&#45;core/nyx&#45;navigator/src/api.rs -->
<g id="edge4" class="edge">
<title>mapper&#45;core/nyx&#45;navigator/src/call_graph.rs&#45;&gt;mapper&#45;core/nyx&#45;navigator/src/api.rs</title>
<path fill="none" stroke="#666666" d="M72.29,-126C80.58,-126 89.52,-126 98.04,-126"/>
<polygon fill="#666666" stroke="#666666" points="97.79,-129.5 107.79,-126 97.79,-122.5 97.79,-129.5"/>
</g>
<!-- mapper&#45;core/nyx&#45;navigator/src/diagram.rs -->
<g id="node6" class="node">
<title>mapper&#45;core/nyx&#45;navigator/src/diagram.rs</title>
<polygon fill="#ff9966" stroke="#333333" points="66.62,-198 8.62,-198 8.62,-162 66.62,-162 66.62,-198"/>
<text xml:space="preserve" text-anchor="middle" x="37.62" y="-181.75" font-family="Times,serif" font-size="10.00">diagram.rs</text>
<text xml:space="preserve" text-anchor="middle" x="37.62" y="-170.5" font-family="Times,serif" font-size="10.00">65 fn</text>
</g>
<!-- mapper&#45;core/nyx&#45;navigator/src/diagram.rs&#45;&gt;mapper&#45;core/nyx&#45;navigator/src/api.rs -->
<g id="edge5" class="edge">
<title>mapper&#45;core/nyx&#45;navigator/src/diagram.rs&#45;&gt;mapper&#45;core/nyx&#45;navigator/src/api.rs</title>
<path fill="none" stroke="#666666" d="M66.89,-164.53C76.98,-159 88.52,-152.68 99.3,-146.78"/>
<polygon fill="#666666" stroke="#666666" points="100.91,-149.89 108,-142.02 97.55,-143.75 100.91,-149.89"/>
</g>
<!-- mapper&#45;core/nyx&#45;navigator/src/diagram.rs&#45;&gt;mapper&#45;core/nyx&#45;navigator/src/layers.rs -->
<g id="edge6" class="edge">
<title>mapper&#45;core/nyx&#45;navigator/src/diagram.rs&#45;&gt;mapper&#45;core/nyx&#45;navigator/src/layers.rs</title>
<path fill="none" stroke="#666666" d="M66.94,-180C99.76,-180 153.98,-180 190.28,-180"/>
<polygon fill="#666666" stroke="#666666" points="189.87,-183.5 199.87,-180 189.87,-176.5 189.87,-183.5"/>
</g>
<!-- mapper&#45;core/nyx&#45;navigator/src/html_export.rs -->
<g id="node7" class="node">
<title>mapper&#45;core/nyx&#45;navigator/src/html_export.rs</title>
<polygon fill="#99ff99" stroke="#333333" points="75.25,-252 0,-252 0,-216 75.25,-216 75.25,-252"/>
<text xml:space="preserve" text-anchor="middle" x="37.62" y="-235.75" font-family="Times,serif" font-size="10.00">html_export.rs</text>
<text xml:space="preserve" text-anchor="middle" x="37.62" y="-224.5" font-family="Times,serif" font-size="10.00">8 fn</text>
</g>
<!-- mapper&#45;core/nyx&#45;navigator/src/html_export.rs&#45;&gt;mapper&#45;core/nyx&#45;navigator/src/api.rs -->
<g id="edge7" class="edge">
<title>mapper&#45;core/nyx&#45;navigator/src/html_export.rs&#45;&gt;mapper&#45;core/nyx&#45;navigator/src/api.rs</title>
<path fill="none" stroke="#666666" d="M65.36,-215.68C68.82,-212.92 72.21,-209.99 75.25,-207 91.3,-191.23 106.7,-171.16 118.13,-154.95"/>
<polygon fill="#666666" stroke="#666666" points="120.71,-157.37 123.51,-147.15 114.95,-153.39 120.71,-157.37"/>
</g>
<!-- mapper&#45;core/nyx&#45;navigator/src/html_export.rs&#45;&gt;mapper&#45;core/nyx&#45;navigator/src/layers.rs -->
<g id="edge8" class="edge">
<title>mapper&#45;core/nyx&#45;navigator/src/html_export.rs&#45;&gt;mapper&#45;core/nyx&#45;navigator/src/layers.rs</title>
<path fill="none" stroke="#666666" d="M75.54,-223.46C108.76,-213.97 157.34,-200.1 190.63,-190.6"/>
<polygon fill="#666666" stroke="#666666" points="191.17,-194.08 199.83,-187.97 189.25,-187.35 191.17,-194.08"/>
</g>
<!-- mapper&#45;core/nyx&#45;navigator/src/lib.rs -->
<g id="node8" class="node">
<title>mapper&#45;core/nyx&#45;navigator/src/lib.rs</title>
<polygon fill="#ff9966" stroke="#333333" points="64.62,-36 10.62,-36 10.62,0 64.62,0 64.62,-36"/>
<text xml:space="preserve" text-anchor="middle" x="37.62" y="-19.75" font-family="Times,serif" font-size="10.00">lib.rs</text>
<text xml:space="preserve" text-anchor="middle" x="37.62" y="-8.5" font-family="Times,serif" font-size="10.00">43 fn</text>
</g>
<!-- mapper&#45;core/nyx&#45;navigator/src/lib.rs&#45;&gt;mapper&#45;core/nyx&#45;navigator/src/api.rs -->
<g id="edge9" class="edge">
<title>mapper&#45;core/nyx&#45;navigator/src/lib.rs&#45;&gt;mapper&#45;core/nyx&#45;navigator/src/api.rs</title>
<path fill="none" stroke="#666666" d="M64.98,-36.01C68.57,-38.86 72.09,-41.9 75.25,-45 91.3,-60.77 106.7,-80.84 118.13,-97.05"/>
<polygon fill="#666666" stroke="#666666" points="114.95,-98.61 123.51,-104.85 120.71,-94.63 114.95,-98.61"/>
</g>
<!-- mapper&#45;core/nyx&#45;navigator/src/lib.rs&#45;&gt;mapper&#45;core/nyx&#45;navigator/src/mapper.rs -->
<g id="edge10" class="edge">
<title>mapper&#45;core/nyx&#45;navigator/src/lib.rs&#45;&gt;mapper&#45;core/nyx&#45;navigator/src/mapper.rs</title>
<path fill="none" stroke="#666666" d="M64.92,-21.75C97.25,-26.37 152.38,-34.24 189.42,-39.53"/>
<polygon fill="#666666" stroke="#666666" points="188.87,-42.98 199.26,-40.93 189.86,-36.05 188.87,-42.98"/>
</g>
<!-- mapper&#45;core/nyx&#45;navigator/src/mcp.rs -->
<g id="node9" class="node">
<title>mapper&#45;core/nyx&#45;navigator/src/mcp.rs</title>
<polygon fill="#99ff99" stroke="#333333" points="64.62,-90 10.62,-90 10.62,-54 64.62,-54 64.62,-90"/>
<text xml:space="preserve" text-anchor="middle" x="37.62" y="-73.75" font-family="Times,serif" font-size="10.00">mcp.rs</text>
<text xml:space="preserve" text-anchor="middle" x="37.62" y="-62.5" font-family="Times,serif" font-size="10.00">34 fn</text>
</g>
<!-- mapper&#45;core/nyx&#45;navigator/src/mcp.rs&#45;&gt;mapper&#45;core/nyx&#45;navigator/src/api.rs -->
<g id="edge11" class="edge">
<title>mapper&#45;core/nyx&#45;navigator/src/mcp.rs&#45;&gt;mapper&#45;core/nyx&#45;navigator/src/api.rs</title>
<path fill="none" stroke="#666666" d="M65.05,-86.47C75.65,-92.27 88.05,-99.06 99.55,-105.36"/>
<polygon fill="#666666" stroke="#666666" points="97.59,-108.27 108.04,-110.01 100.95,-102.13 97.59,-108.27"/>
</g>
</g>
</svg>
