<?xml version="1.0" encoding="UTF-8" standalone="no"?>
<!DOCTYPE svg PUBLIC "-//W3C//DTD SVG 1.1//EN"
 "http://www.w3.org/Graphics/SVG/1.1/DTD/svg11.dtd">
<!-- Generated by graphviz version 14.1.5 (20260411.2331)
 -->
<!-- Title: codecartographer Pages: 1 -->
<svg width="354pt" height="457pt"
 viewBox="0.00 0.00 354.00 457.00" xmlns="http://www.w3.org/2000/svg" xmlns:xlink="http://www.w3.org/1999/xlink">
<g id="graph0" class="graph" transform="scale(1 1) rotate(0) translate(4 452.67)">
<title>codecartographer</title>
<polygon fill="white" stroke="none" points="-4,4 -4,-452.67 350.25,-452.67 350.25,4 -4,4"/>
<!-- src/api.rs -->
<g id="node1" class="node">
<title>src/api.rs</title>
<polygon fill="#ff3333" stroke="#660000" stroke-width="4" points="255.25,-252.91 201.25,-252.91 201.25,-216.91 255.25,-216.91 255.25,-252.91"/>
<text xml:space="preserve" text-anchor="middle" x="228.25" y="-236.66" font-family="Times,serif" font-size="10.00">api.rs</text>
<text xml:space="preserve" text-anchor="middle" x="228.25" y="-225.41" font-family="Times,serif" font-size="10.00">63 fn</text>
</g>
<!-- src/layers.rs -->
<g id="node2" class="node">
<title>src/layers.rs</title>
<polygon fill="#ff9966" stroke="#333333" points="345.75,-325.91 291.75,-325.91 291.75,-289.91 345.75,-289.91 345.75,-325.91"/>
<text xml:space="preserve" text-anchor="middle" x="318.75" y="-309.66" font-family="Times,serif" font-size="10.00">layers.rs</text>
<text xml:space="preserve" text-anchor="middle" x="318.75" y="-298.41" font-family="Times,serif" font-size="10.00">15 fn</text>
</g>
<!-- src/api.rs&#45;&gt;src/layers.rs -->
<g id="edge1" class="edge">
<title>src/api.rs&#45;&gt;src/layers.rs</title>
<path fill="none" stroke="#666666" d="M253.43,-254.85C263.67,-263.3 275.72,-273.24 286.61,-282.22"/>
<polygon fill="#666666" stroke="#666666" points="284.31,-284.86 294.25,-288.52 288.76,-279.46 284.31,-284.86"/>
</g>
<!-- src/mapper.rs -->
<g id="node3" class="node">
<title>src/mapper.rs</title>
<polygon fill="#ff9966" stroke="#333333" points="346.25,-252.91 291.25,-252.91 291.25,-216.91 346.25,-216.91 346.25,-252.91"/>
<text xml:space="preserve" text-anchor="middle" x="318.75" y="-236.66" font-family="Times,serif" font-size="10.00">mapper.rs</text>
<text xml:space="preserve" text-anchor="middle" x="318.75" y="-225.41" font-family="Times,serif" font-size="10.00">37 fn</text>
</g>
<!-- src/api.rs&#45;&gt;src/mapper.rs -->
<g id="edge2" class="edge">
<title>src/api.rs&#45;&gt;src/mapper.rs</title>
<path fill="none" stroke="#666666" d="M256.77,-234.91C263.98,-234.91 271.88,-234.91 279.54,-234.91"/>
<polygon fill="#666666" stroke="#666666" points="279.34,-238.41 289.34,-234.91 279.34,-231.41 279.34,-238.41"/>
</g>
<!-- src/sync.rs -->
<g id="node4" class="node">
<title>src/sync.rs</title>
<polygon fill="#ff9966" stroke="#333333" points="345.75,-118.91 291.75,-118.91 291.75,-82.91 345.75,-82.91 345.75,-118.91"/>
<text xml:space="preserve" text-anchor="middle" x="318.75" y="-102.66" font-family="Times,serif" font-size="10.00">sync.rs</text>
<text xml:space="preserve" text-anchor="middle" x="318.75" y="-91.41" font-family="Times,serif" font-size="10.00">9 fn</text>
</g>
<!-- src/api.rs&#45;&gt;src/sync.rs -->
<g id="edge3" class="edge">
<title>src/api.rs&#45;&gt;src/sync.rs</title>
<path fill="none" stroke="#666666" d="M242.31,-215.14C257.42,-192.25 282.4,-154.42 299.45,-128.62"/>
<polygon fill="#666666" stroke="#666666" points="302.35,-130.58 304.94,-120.3 296.51,-126.72 302.35,-130.58"/>
</g>
<!-- src/call_graph.rs -->
<g id="node5" class="node">
<title>src/call_graph.rs</title>
<polygon fill="#ff9966" stroke="#333333" points="161.88,-233.91 93.38,-233.91 93.38,-197.91 161.88,-197.91 161.88,-233.91"/>
<text xml:space="preserve" text-anchor="middle" x="127.62" y="-217.66" font-family="Times,serif" font-size="10.00">call_graph.rs</text>
<text xml:space="preserve" text-anchor="middle" x="127.62" y="-206.41" font-family="Times,serif" font-size="10.00">26 fn</text>
</g>
<!-- src/call_graph.rs&#45;&gt;src/api.rs -->
<g id="edge4" class="edge">
<title>src/call_graph.rs&#45;&gt;src/api.rs</title>
<path fill="none" stroke="#666666" d="M162.29,-222.39C170.58,-223.99 179.52,-225.71 188.04,-227.35"/>
<polygon fill="#666666" stroke="#666666" points="187.34,-230.78 197.82,-229.24 188.66,-223.91 187.34,-230.78"/>
</g>
<!-- src/diagram.rs -->
<g id="node6" class="node">
<title>src/diagram.rs</title>
<polygon fill="#ff9966" stroke="#333333" points="156.62,-379.91 98.62,-379.91 98.62,-343.91 156.62,-343.91 156.62,-379.91"/>
<text xml:space="preserve" text-anchor="middle" x="127.62" y="-363.66" font-family="Times,serif" font-size="10.00">diagram.rs</text>
<text xml:space="preserve" text-anchor="middle" x="127.62" y="-352.41" font-family="Times,serif" font-size="10.00">71 fn</text>
</g>
<!-- src/diagram.rs&#45;&gt;src/api.rs -->
<g id="edge5" class="edge">
<title>src/diagram.rs&#45;&gt;src/api.rs</title>
<path fill="none" stroke="#666666" d="M156.02,-343.55C159.3,-340.83 162.46,-337.93 165.25,-334.91 184.69,-313.85 201.44,-285.83 212.61,-264.82"/>
<polygon fill="#666666" stroke="#666666" points="215.6,-266.66 217.09,-256.17 209.38,-263.45 215.6,-266.66"/>
</g>
<!-- src/diagram.rs&#45;&gt;src/layers.rs -->
<g id="edge6" class="edge">
<title>src/diagram.rs&#45;&gt;src/layers.rs</title>
<path fill="none" stroke="#666666" d="M156.94,-353.82C189.9,-344.41 244.45,-328.83 280.75,-318.47"/>
<polygon fill="#666666" stroke="#666666" points="281.27,-321.96 289.93,-315.85 279.35,-315.23 281.27,-321.96"/>
</g>
<!-- src/html_export.rs -->
<g id="node7" class="node">
<title>src/html_export.rs</title>
<polygon fill="#ff9966" stroke="#333333" points="165.25,-325.91 90,-325.91 90,-289.91 165.25,-289.91 165.25,-325.91"/>
<text xml:space="preserve" text-anchor="middle" x="127.62" y="-309.66" font-family="Times,serif" font-size="10.00">html_export.rs</text>
<text xml:space="preserve" text-anchor="middle" x="127.62" y="-298.41" font-family="Times,serif" font-size="10.00">8 fn</text>
</g>
<!-- src/html_export.rs&#45;&gt;src/api.rs -->
<g id="edge7" class="edge">
<title>src/html_export.rs&#45;&gt;src/api.rs</title>
<path fill="none" stroke="#666666" d="M153.51,-289.49C164.88,-281.07 178.57,-270.94 191.04,-261.71"/>
<polygon fill="#666666" stroke="#666666" points="193.12,-264.52 199.08,-255.76 188.96,-258.9 193.12,-264.52"/>
</g>
<!-- src/html_export.rs&#45;&gt;src/layers.rs -->
<g id="edge8" class="edge">
<title>src/html_export.rs&#45;&gt;src/layers.rs</title>
<path fill="none" stroke="#666666" d="M165.54,-307.91C198.62,-307.91 246.92,-307.91 280.19,-307.91"/>
<polygon fill="#666666" stroke="#666666" points="279.77,-311.41 289.77,-307.91 279.77,-304.41 279.77,-311.41"/>
</g>
<!-- src/lib.rs -->
<g id="node8" class="node">
<title>src/lib.rs</title>
<polygon fill="#ff9966" stroke="#333333" points="54,-352.91 0,-352.91 0,-316.91 54,-316.91 54,-352.91"/>
<text xml:space="preserve" text-anchor="middle" x="27" y="-336.66" font-family="Times,serif" font-size="10.00">lib.rs</text>
<text xml:space="preserve" text-anchor="middle" x="27" y="-325.41" font-family="Times,serif" font-size="10.00">45 fn</text>
</g>
<!-- src/lib.rs&#45;&gt;src/api.rs -->
<g id="edge9" class="edge">
<title>src/lib.rs&#45;&gt;src/api.rs</title>
<path fill="none" stroke="#666666" d="M45.25,-316.54C56.95,-304.97 73.28,-290.48 90,-280.91 120.96,-263.18 159.78,-250.97 188.23,-243.61"/>
<polygon fill="#666666" stroke="#666666" points="189.02,-247.02 197.88,-241.21 187.33,-240.23 189.02,-247.02"/>
</g>
<!-- src/lib.rs&#45;&gt;src/layers.rs -->
<g id="edge13" class="edge">
<title>src/lib.rs&#45;&gt;src/layers.rs</title>
<path fill="none" stroke="#666666" d="M34.96,-353.25C44.04,-374.23 62.14,-407.55 90,-421.91 155.29,-455.55 192.05,-459.33 255.25,-421.91 286.01,-403.69 302.63,-364.38 310.83,-337.05"/>
<polygon fill="#666666" stroke="#666666" points="314.15,-338.2 313.45,-327.63 307.4,-336.33 314.15,-338.2"/>
</g>
<!-- src/lib.rs&#45;&gt;src/mapper.rs -->
<g id="edge14" class="edge">
<title>src/lib.rs&#45;&gt;src/mapper.rs</title>
<path fill="none" stroke="#666666" d="M42.64,-353.27C54.02,-365.96 71.02,-381.8 90,-388.91 121.32,-400.63 134.38,-401.78 165.25,-388.91 226.78,-363.25 276.18,-299.34 300.78,-262.42"/>
<polygon fill="#666666" stroke="#666666" points="303.42,-264.78 305.94,-254.49 297.55,-260.96 303.42,-264.78"/>
</g>
<!-- src/lib.rs&#45;&gt;src/call_graph.rs -->
<g id="edge10" class="edge">
<title>src/lib.rs&#45;&gt;src/call_graph.rs</title>
<path fill="none" stroke="#666666" d="M39.21,-316.66C50.84,-298.39 70.08,-269.9 90,-247.91 91.88,-245.83 93.9,-243.75 95.97,-241.7"/>
<polygon fill="#666666" stroke="#666666" points="98.13,-244.48 103.05,-235.1 93.35,-239.36 98.13,-244.48"/>
</g>
<!-- src/lib.rs&#45;&gt;src/diagram.rs -->
<g id="edge11" class="edge">
<title>src/lib.rs&#45;&gt;src/diagram.rs</title>
<path fill="none" stroke="#666666" d="M54.43,-342.14C64.61,-344.93 76.47,-348.18 87.6,-351.22"/>
<polygon fill="#666666" stroke="#666666" points="86.36,-354.51 96.93,-353.78 88.21,-347.76 86.36,-354.51"/>
</g>
<!-- src/lib.rs&#45;&gt;src/html_export.rs -->
<g id="edge12" class="edge">
<title>src/lib.rs&#45;&gt;src/html_export.rs</title>
<path fill="none" stroke="#666666" d="M54.43,-327.67C61.97,-325.61 70.42,-323.29 78.82,-321"/>
<polygon fill="#666666" stroke="#666666" points="79.56,-324.42 88.28,-318.4 77.71,-317.67 79.56,-324.42"/>
</g>
<!-- src/main.rs -->
<g id="node9" class="node">
<title>src/main.rs</title>
<polygon fill="#99ff99" stroke="#333333" points="54,-156.91 0,-156.91 0,-120.91 54,-120.91 54,-156.91"/>
<text xml:space="preserve" text-anchor="middle" x="27" y="-140.66" font-family="Times,serif" font-size="10.00">main.rs</text>
<text xml:space="preserve" text-anchor="middle" x="27" y="-129.41" font-family="Times,serif" font-size="10.00">30 fn</text>
</g>
<!-- src/main.rs&#45;&gt;src/api.rs -->
<g id="edge15" class="edge">
<title>src/main.rs&#45;&gt;src/api.rs</title>
<path fill="none" stroke="#666666" d="M54.41,-130.57C83.51,-123.01 130.78,-115.72 165.25,-134.91 191.75,-149.66 208.37,-180.94 217.65,-204.61"/>
<polygon fill="#666666" stroke="#666666" points="214.28,-205.58 221,-213.77 220.85,-203.18 214.28,-205.58"/>
</g>
<!-- src/main.rs&#45;&gt;src/layers.rs -->
<g id="edge19" class="edge">
<title>src/main.rs&#45;&gt;src/layers.rs</title>
<path fill="none" stroke="#666666" d="M54.28,-127.2C82.67,-116.33 128.72,-103.9 165.25,-118.91 217.28,-140.29 220.11,-163.98 255.25,-207.91 265.25,-220.41 286.37,-254.98 301.28,-279.97"/>
<polygon fill="#666666" stroke="#666666" points="298.16,-281.57 306.28,-288.38 304.18,-277.99 298.16,-281.57"/>
</g>
<!-- src/main.rs&#45;&gt;src/mapper.rs -->
<g id="edge20" class="edge">
<title>src/main.rs&#45;&gt;src/mapper.rs</title>
<path fill="none" stroke="#666666" d="M36.92,-120.71C46.99,-102.5 65.24,-75.56 90,-63.91 156.45,-32.62 195.06,-21.82 255.25,-63.91 279.03,-80.53 300.85,-161.26 311.29,-205.6"/>
<polygon fill="#666666" stroke="#666666" points="307.81,-206.1 313.47,-215.06 314.63,-204.53 307.81,-206.1"/>
</g>
<!-- src/main.rs&#45;&gt;src/sync.rs -->
<g id="edge22" class="edge">
<title>src/main.rs&#45;&gt;src/sync.rs</title>
<path fill="none" stroke="#666666" d="M31.87,-120.81C38.58,-94.48 55.15,-46.54 90,-25.91 153.2,11.51 188.74,5.24 255.25,-25.91 276.04,-35.64 292.32,-56.07 303.05,-73.14"/>
<polygon fill="#666666" stroke="#666666" points="299.84,-74.59 307.94,-81.41 305.86,-71.02 299.84,-74.59"/>
</g>
<!-- src/main.rs&#45;&gt;src/call_graph.rs -->
<g id="edge16" class="edge">
<title>src/main.rs&#45;&gt;src/call_graph.rs</title>
<path fill="none" stroke="#666666" d="M50.2,-157.2C61.93,-166.77 76.64,-178.6 90,-188.91 90.79,-189.52 91.6,-190.14 92.41,-190.76"/>
<polygon fill="#666666" stroke="#666666" points="90,-193.32 100.09,-196.55 94.21,-187.73 90,-193.32"/>
</g>
<!-- src/main.rs&#45;&gt;src/diagram.rs -->
<g id="edge17" class="edge">
<title>src/main.rs&#45;&gt;src/diagram.rs</title>
<path fill="none" stroke="#666666" d="M29.99,-157.35C34.73,-194.21 49.51,-278.3 90,-334.91 90.22,-335.22 90.45,-335.53 90.69,-335.84"/>
<polygon fill="#666666" stroke="#666666" points="88.05,-338.15 97.44,-343.06 93.16,-333.36 88.05,-338.15"/>
</g>
<!-- src/main.rs&#45;&gt;src/html_export.rs -->
<g id="edge18" class="edge">
<title>src/main.rs&#45;&gt;src/html_export.rs</title>
<path fill="none" stroke="#666666" d="M38.74,-157.31C56.01,-186.9 90.05,-245.23 110.32,-279.97"/>
<polygon fill="#666666" stroke="#666666" points="107.07,-281.34 115.13,-288.22 113.12,-277.81 107.07,-281.34"/>
</g>
<!-- src/mcp.rs -->
<g id="node10" class="node">
<title>src/mcp.rs</title>
<polygon fill="#ffffff" stroke="#333333" points="154.62,-179.91 100.62,-179.91 100.62,-143.91 154.62,-143.91 154.62,-179.91"/>
<text xml:space="preserve" text-anchor="middle" x="127.62" y="-163.66" font-family="Times,serif" font-size="10.00">mcp.rs</text>
<text xml:space="preserve" text-anchor="middle" x="127.62" y="-152.41" font-family="Times,serif" font-size="10.00">40 fn</text>
</g>
<!-- src/main.rs&#45;&gt;src/mcp.rs -->
<g id="edge21" class="edge">
<title>src/main.rs&#45;&gt;src/mcp.rs</title>
<path fill="none" stroke="#666666" d="M54.43,-145.07C65.13,-147.57 77.67,-150.49 89.28,-153.2"/>
<polygon fill="#666666" stroke="#666666" points="88.46,-156.6 98.99,-155.46 90.05,-149.78 88.46,-156.6"/>
</g>
<!-- src/mcp.rs&#45;&gt;src/api.rs -->
<g id="edge23" class="edge">
<title>src/mcp.rs&#45;&gt;src/api.rs</title>
<path fill="none" stroke="#666666" d="M153.46,-180.2C157.4,-183.11 161.44,-186.09 165.25,-188.91 173.72,-195.17 182.83,-201.92 191.39,-208.27"/>
<polygon fill="#666666" stroke="#666666" points="189.08,-210.91 199.19,-214.06 193.25,-205.29 189.08,-210.91"/>
</g>
</g>
</svg>
