<?xml version="1.0" encoding="UTF-8" standalone="no"?>
<!DOCTYPE svg PUBLIC "-//W3C//DTD SVG 1.1//EN"
 "http://www.w3.org/Graphics/SVG/1.1/DTD/svg11.dtd">
<!-- Generated by graphviz version 14.1.5 (20260411.2331)
 -->
<!-- Title: navigator Pages: 1 -->
<svg width="253pt" height="217pt"
 viewBox="0.00 0.00 253.00 217.00" xmlns="http://www.w3.org/2000/svg" xmlns:xlink="http://www.w3.org/1999/xlink">
<g id="graph0" class="graph" transform="scale(1 1) rotate(0) translate(4 213)">
<title>navigator</title>
<polygon fill="white" stroke="none" points="-4,4 -4,-213 249,-213 249,4 -4,4"/>
<!-- mapper&#45;core/nyx&#45;navigator/src/main.rs -->
<g id="node1" class="node">
<title>mapper&#45;core/nyx&#45;navigator/src/main.rs</title>
<polygon fill="#ff9966" stroke="#333333" points="54,-109 0,-109 0,-73 54,-73 54,-109"/>
<text xml:space="preserve" text-anchor="middle" x="27" y="-92.75" font-family="Times,serif" font-size="10.00">main.rs</text>
<text xml:space="preserve" text-anchor="middle" x="27" y="-81.5" font-family="Times,serif" font-size="10.00">26 fn</text>
</g>
<!-- mapper&#45;core/nyx&#45;navigator/src/formatter.rs -->
<g id="node2" class="node">
<title>mapper&#45;core/nyx&#45;navigator/src/formatter.rs</title>
<polygon fill="#ffffff" stroke="#333333" points="151.75,-209 90,-209 90,-173 151.75,-173 151.75,-209"/>
<text xml:space="preserve" text-anchor="middle" x="120.88" y="-192.75" font-family="Times,serif" font-size="10.00">formatter.rs</text>
<text xml:space="preserve" text-anchor="middle" x="120.88" y="-181.5" font-family="Times,serif" font-size="10.00">16 fn</text>
</g>
<!-- mapper&#45;core/nyx&#45;navigator/src/main.rs&#45;&gt;mapper&#45;core/nyx&#45;navigator/src/formatter.rs -->
<g id="edge2" class="edge">
<title>mapper&#45;core/nyx&#45;navigator/src/main.rs&#45;&gt;mapper&#45;core/nyx&#45;navigator/src/formatter.rs</title>
<path fill="none" stroke="#666666" d="M42.4,-109.28C54.58,-124.4 72.75,-146.21 90,-164 90.26,-164.27 90.53,-164.55 90.8,-164.82"/>
<polygon fill="#666666" stroke="#666666" points="88.27,-167.24 97.89,-171.7 93.15,-162.22 88.27,-167.24"/>
</g>
<!-- mapper&#45;core/nyx&#45;navigator/src/mapper.rs -->
<g id="node3" class="node">
<title>mapper&#45;core/nyx&#45;navigator/src/mapper.rs</title>
<polygon fill="#ff9966" stroke="#333333" points="148.38,-155 93.38,-155 93.38,-119 148.38,-119 148.38,-155"/>
<text xml:space="preserve" text-anchor="middle" x="120.88" y="-138.75" font-family="Times,serif" font-size="10.00">mapper.rs</text>
<text xml:space="preserve" text-anchor="middle" x="120.88" y="-127.5" font-family="Times,serif" font-size="10.00">37 fn</text>
</g>
<!-- mapper&#45;core/nyx&#45;navigator/src/main.rs&#45;&gt;mapper&#45;core/nyx&#45;navigator/src/mapper.rs -->
<g id="edge3" class="edge">
<title>mapper&#45;core/nyx&#45;navigator/src/main.rs&#45;&gt;mapper&#45;core/nyx&#45;navigator/src/mapper.rs</title>
<path fill="none" stroke="#666666" d="M54.08,-104.06C63.04,-108.55 73.25,-113.66 82.91,-118.49"/>
<polygon fill="#666666" stroke="#666666" points="81.23,-121.56 91.74,-122.91 84.36,-115.3 81.23,-121.56"/>
</g>
<!-- mapper&#45;core/nyx&#45;navigator/src/memory.rs -->
<g id="node4" class="node">
<title>mapper&#45;core/nyx&#45;navigator/src/memory.rs</title>
<polygon fill="#ff9966" stroke="#333333" points="245,-109 187.75,-109 187.75,-73 245,-73 245,-109"/>
<text xml:space="preserve" text-anchor="middle" x="216.38" y="-92.75" font-family="Times,serif" font-size="10.00">memory.rs</text>
<text xml:space="preserve" text-anchor="middle" x="216.38" y="-81.5" font-family="Times,serif" font-size="10.00">8 fn</text>
</g>
<!-- mapper&#45;core/nyx&#45;navigator/src/main.rs&#45;&gt;mapper&#45;core/nyx&#45;navigator/src/memory.rs -->
<g id="edge4" class="edge">
<title>mapper&#45;core/nyx&#45;navigator/src/main.rs&#45;&gt;mapper&#45;core/nyx&#45;navigator/src/memory.rs</title>
<path fill="none" stroke="#666666" d="M54.45,-91C86.22,-91 139.79,-91 176.32,-91"/>
<polygon fill="#666666" stroke="#666666" points="176.02,-94.5 186.02,-91 176.02,-87.5 176.02,-94.5"/>
</g>
<!-- mapper&#45;core/nyx&#45;navigator/src/scanner.rs -->
<g id="node5" class="node">
<title>mapper&#45;core/nyx&#45;navigator/src/scanner.rs</title>
<polygon fill="#ff9966" stroke="#333333" points="244.25,-36 188.5,-36 188.5,0 244.25,0 244.25,-36"/>
<text xml:space="preserve" text-anchor="middle" x="216.38" y="-19.75" font-family="Times,serif" font-size="10.00">scanner.rs</text>
<text xml:space="preserve" text-anchor="middle" x="216.38" y="-8.5" font-family="Times,serif" font-size="10.00">26 fn</text>
</g>
<!-- mapper&#45;core/nyx&#45;navigator/src/main.rs&#45;&gt;mapper&#45;core/nyx&#45;navigator/src/scanner.rs -->
<g id="edge5" class="edge">
<title>mapper&#45;core/nyx&#45;navigator/src/main.rs&#45;&gt;mapper&#45;core/nyx&#45;navigator/src/scanner.rs</title>
<path fill="none" stroke="#666666" d="M37.43,-72.62C47.67,-54.89 65.85,-29.17 90,-18 117.07,-5.48 151.07,-6.36 176.84,-9.88"/>
<polygon fill="#666666" stroke="#666666" points="176.13,-13.31 186.55,-11.42 177.22,-6.4 176.13,-13.31"/>
</g>
<!-- mapper&#45;core/nyx&#45;navigator/src/sync.rs -->
<g id="node6" class="node">
<title>mapper&#45;core/nyx&#45;navigator/src/sync.rs</title>
<polygon fill="#ff9966" stroke="#333333" points="147.88,-63 93.88,-63 93.88,-27 147.88,-27 147.88,-63"/>
<text xml:space="preserve" text-anchor="middle" x="120.88" y="-46.75" font-family="Times,serif" font-size="10.00">sync.rs</text>
<text xml:space="preserve" text-anchor="middle" x="120.88" y="-35.5" font-family="Times,serif" font-size="10.00">9 fn</text>
</g>
<!-- mapper&#45;core/nyx&#45;navigator/src/main.rs&#45;&gt;mapper&#45;core/nyx&#45;navigator/src/sync.rs -->
<g id="edge6" class="edge">
<title>mapper&#45;core/nyx&#45;navigator/src/main.rs&#45;&gt;mapper&#45;core/nyx&#45;navigator/src/sync.rs</title>
<path fill="none" stroke="#666666" d="M54.08,-77.94C63.12,-73.42 73.43,-68.25 83.16,-63.38"/>
<polygon fill="#666666" stroke="#666666" points="84.68,-66.54 92.06,-58.93 81.55,-60.28 84.68,-66.54"/>
</g>
<!-- mapper&#45;core/nyx&#45;navigator/src/formatter.rs&#45;&gt;mapper&#45;core/nyx&#45;navigator/src/memory.rs -->
<g id="edge1" class="edge">
<title>mapper&#45;core/nyx&#45;navigator/src/formatter.rs&#45;&gt;mapper&#45;core/nyx&#45;navigator/src/memory.rs</title>
<path fill="none" stroke="#666666" d="M142.75,-172.72C145.82,-169.86 148.91,-166.89 151.75,-164 166.15,-149.34 181.3,-132.04 193.21,-117.96"/>
<polygon fill="#666666" stroke="#666666" points="195.81,-120.3 199.55,-110.39 190.44,-115.81 195.81,-120.3"/>
</g>
<!-- mapper&#45;core/nyx&#45;navigator/src/sync.rs&#45;&gt;mapper&#45;core/nyx&#45;navigator/src/memory.rs -->
<g id="edge7" class="edge">
<title>mapper&#45;core/nyx&#45;navigator/src/sync.rs&#45;&gt;mapper&#45;core/nyx&#45;navigator/src/memory.rs</title>
<path fill="none" stroke="#666666" d="M147.92,-57.81C157.06,-62.31 167.53,-67.46 177.45,-72.34"/>
<polygon fill="#666666" stroke="#666666" points="175.63,-75.35 186.15,-76.62 178.72,-69.07 175.63,-75.35"/>
</g>
<!-- mapper&#45;core/nyx&#45;navigator/src/sync.rs&#45;&gt;mapper&#45;core/nyx&#45;navigator/src/scanner.rs -->
<g id="edge8" class="edge">
<title>mapper&#45;core/nyx&#45;navigator/src/sync.rs&#45;&gt;mapper&#45;core/nyx&#45;navigator/src/scanner.rs</title>
<path fill="none" stroke="#666666" d="M147.92,-37.48C157.03,-34.85 167.45,-31.84 177.33,-28.98"/>
<polygon fill="#666666" stroke="#666666" points="178.08,-32.41 186.71,-26.28 176.13,-25.69 178.08,-32.41"/>
</g>
</g>
</svg>
