<?xml version="1.0" encoding="UTF-8" standalone="no"?>
<!DOCTYPE svg PUBLIC "-//W3C//DTD SVG 1.1//EN"
 "http://www.w3.org/Graphics/SVG/1.1/DTD/svg11.dtd">
<!-- Generated by graphviz version 14.1.5 (20260411.2331)
 -->
<!-- Title: codecartographer Pages: 1 -->
<svg width="586pt" height="1353pt"
 viewBox="0.00 0.00 586.00 1353.00" xmlns="http://www.w3.org/2000/svg" xmlns:xlink="http://www.w3.org/1999/xlink">
<g id="graph0" class="graph" transform="scale(1 1) rotate(0) translate(4 1349.09)">
<title>codecartographer</title>
<polygon fill="white" stroke="none" points="-4,4 -4,-1349.09 582,-1349.09 582,4 -4,4"/>
<!-- src/main.rs -->
<g id="node1" class="node">
<title>src/main.rs</title>
<polygon fill="#99ff99" stroke="#333333" points="54,-890.09 0,-890.09 0,-854.09 54,-854.09 54,-890.09"/>
<text xml:space="preserve" text-anchor="middle" x="27" y="-873.84" font-family="Times,serif" font-size="10.00">main.rs</text>
<text xml:space="preserve" text-anchor="middle" x="27" y="-862.59" font-family="Times,serif" font-size="10.00">30 fn</text>
</g>
<!-- src/answer.rs -->
<g id="node2" class="node">
<title>src/answer.rs</title>
<polygon fill="#ff9966" stroke="#333333" points="161.75,-993.09 107.75,-993.09 107.75,-957.09 161.75,-957.09 161.75,-993.09"/>
<text xml:space="preserve" text-anchor="middle" x="134.75" y="-976.84" font-family="Times,serif" font-size="10.00">answer.rs</text>
<text xml:space="preserve" text-anchor="middle" x="134.75" y="-965.59" font-family="Times,serif" font-size="10.00">16 fn</text>
</g>
<!-- src/main.rs&#45;&gt;src/answer.rs -->
<g id="edge30" class="edge">
<title>src/main.rs&#45;&gt;src/answer.rs</title>
<path fill="none" stroke="#666666" d="M42.02,-890.29C53.98,-905.26 72.03,-926.6 90,-943.09 92.7,-945.57 95.6,-948.03 98.57,-950.44"/>
<polygon fill="#666666" stroke="#666666" points="96.31,-953.11 106.36,-956.46 100.59,-947.57 96.31,-953.11"/>
</g>
<!-- src/api.rs -->
<g id="node3" class="node">
<title>src/api.rs</title>
<polygon fill="#ff9966" stroke="#333333" points="387.25,-695.09 333.25,-695.09 333.25,-659.09 387.25,-659.09 387.25,-695.09"/>
<text xml:space="preserve" text-anchor="middle" x="360.25" y="-678.84" font-family="Times,serif" font-size="10.00">api.rs</text>
<text xml:space="preserve" text-anchor="middle" x="360.25" y="-667.59" font-family="Times,serif" font-size="10.00">63 fn</text>
</g>
<!-- src/main.rs&#45;&gt;src/api.rs -->
<g id="edge31" class="edge">
<title>src/main.rs&#45;&gt;src/api.rs</title>
<path fill="none" stroke="#666666" d="M54.43,-875.11C85.45,-877.64 137.93,-878.67 179.5,-863.09 257.36,-833.9 316.62,-749.63 343.46,-705.23"/>
<polygon fill="#666666" stroke="#666666" points="346.44,-707.06 348.51,-696.67 340.41,-703.5 346.44,-707.06"/>
</g>
<!-- src/call_graph.rs -->
<g id="node4" class="node">
<title>src/call_graph.rs</title>
<polygon fill="#ff9966" stroke="#333333" points="287.38,-695.09 218.88,-695.09 218.88,-659.09 287.38,-659.09 287.38,-695.09"/>
<text xml:space="preserve" text-anchor="middle" x="253.12" y="-678.84" font-family="Times,serif" font-size="10.00">call_graph.rs</text>
<text xml:space="preserve" text-anchor="middle" x="253.12" y="-667.59" font-family="Times,serif" font-size="10.00">26 fn</text>
</g>
<!-- src/main.rs&#45;&gt;src/call_graph.rs -->
<g id="edge32" class="edge">
<title>src/main.rs&#45;&gt;src/call_graph.rs</title>
<path fill="none" stroke="#666666" d="M37.3,-853.88C48.05,-834.06 67.23,-802.25 90,-780.09 125.34,-745.69 173.96,-716.66 208.72,-698.27"/>
<polygon fill="#666666" stroke="#666666" points="209.98,-701.56 217.24,-693.84 206.75,-695.35 209.98,-701.56"/>
</g>
<!-- src/class_graph.rs -->
<g id="node5" class="node">
<title>src/class_graph.rs</title>
<polygon fill="#ff9966" stroke="#333333" points="171.25,-473.09 98.25,-473.09 98.25,-437.09 171.25,-437.09 171.25,-473.09"/>
<text xml:space="preserve" text-anchor="middle" x="134.75" y="-456.84" font-family="Times,serif" font-size="10.00">class_graph.rs</text>
<text xml:space="preserve" text-anchor="middle" x="134.75" y="-445.59" font-family="Times,serif" font-size="10.00">14 fn</text>
</g>
<!-- src/main.rs&#45;&gt;src/class_graph.rs -->
<g id="edge33" class="edge">
<title>src/main.rs&#45;&gt;src/class_graph.rs</title>
<path fill="none" stroke="#666666" d="M28.9,-853.92C32.59,-785.56 48.37,-544.56 90,-482.09 90.07,-481.98 90.14,-481.88 90.21,-481.78"/>
<polygon fill="#666666" stroke="#666666" points="92.8,-484.14 96.9,-474.37 87.6,-479.44 92.8,-484.14"/>
</g>
<!-- src/cross_call.rs -->
<g id="node6" class="node">
<title>src/cross_call.rs</title>
<polygon fill="#ff9966" stroke="#333333" points="167.5,-695.09 102,-695.09 102,-659.09 167.5,-659.09 167.5,-695.09"/>
<text xml:space="preserve" text-anchor="middle" x="134.75" y="-678.84" font-family="Times,serif" font-size="10.00">cross_call.rs</text>
<text xml:space="preserve" text-anchor="middle" x="134.75" y="-667.59" font-family="Times,serif" font-size="10.00">4 fn</text>
</g>
<!-- src/main.rs&#45;&gt;src/cross_call.rs -->
<g id="edge34" class="edge">
<title>src/main.rs&#45;&gt;src/cross_call.rs</title>
<path fill="none" stroke="#666666" d="M36.29,-854C47.7,-829.43 69.2,-784.31 90,-747.09 97.89,-732.97 107.32,-717.7 115.41,-705.03"/>
<polygon fill="#666666" stroke="#666666" points="118.25,-707.08 120.73,-696.78 112.37,-703.29 118.25,-707.08"/>
</g>
<!-- src/diagram.rs -->
<g id="node7" class="node">
<title>src/diagram.rs</title>
<polygon fill="#ff9966" stroke="#333333" points="282.12,-484.09 224.12,-484.09 224.12,-448.09 282.12,-448.09 282.12,-484.09"/>
<text xml:space="preserve" text-anchor="middle" x="253.12" y="-467.84" font-family="Times,serif" font-size="10.00">diagram.rs</text>
<text xml:space="preserve" text-anchor="middle" x="253.12" y="-456.59" font-family="Times,serif" font-size="10.00">71 fn</text>
</g>
<!-- src/main.rs&#45;&gt;src/diagram.rs -->
<g id="edge35" class="edge">
<title>src/main.rs&#45;&gt;src/diagram.rs</title>
<path fill="none" stroke="#666666" d="M27.59,-853.9C27.52,-808.88 33.12,-690.6 90,-617.09 117.62,-581.39 145.7,-599 179.5,-569.09 203.69,-547.68 224.13,-516.71 237.1,-494.33"/>
<polygon fill="#666666" stroke="#666666" points="240.09,-496.16 241.95,-485.73 233.99,-492.72 240.09,-496.16"/>
</g>
<!-- src/diagram_export.rs -->
<g id="node8" class="node">
<title>src/diagram_export.rs</title>
<polygon fill="#ff9966" stroke="#333333" points="179.5,-365.09 90,-365.09 90,-329.09 179.5,-329.09 179.5,-365.09"/>
<text xml:space="preserve" text-anchor="middle" x="134.75" y="-348.84" font-family="Times,serif" font-size="10.00">diagram_export.rs</text>
<text xml:space="preserve" text-anchor="middle" x="134.75" y="-337.59" font-family="Times,serif" font-size="10.00">5 fn</text>
</g>
<!-- src/main.rs&#45;&gt;src/diagram_export.rs -->
<g id="edge36" class="edge">
<title>src/main.rs&#45;&gt;src/diagram_export.rs</title>
<path fill="none" stroke="#666666" d="M28.2,-853.74C29.36,-776.41 36.92,-476.76 91.59,-375.27"/>
<polygon fill="#666666" stroke="#666666" points="94.51,-377.21 96.62,-366.83 88.49,-373.63 94.51,-377.21"/>
</g>
<!-- src/extractor.rs -->
<g id="node9" class="node">
<title>src/extractor.rs</title>
<polygon fill="#ff9966" stroke="#333333" points="165.25,-825.09 104.25,-825.09 104.25,-789.09 165.25,-789.09 165.25,-825.09"/>
<text xml:space="preserve" text-anchor="middle" x="134.75" y="-808.84" font-family="Times,serif" font-size="10.00">extractor.rs</text>
<text xml:space="preserve" text-anchor="middle" x="134.75" y="-797.59" font-family="Times,serif" font-size="10.00">17 fn</text>
</g>
<!-- src/main.rs&#45;&gt;src/extractor.rs -->
<g id="edge37" class="edge">
<title>src/main.rs&#45;&gt;src/extractor.rs</title>
<path fill="none" stroke="#666666" d="M54.41,-855.85C66.52,-848.41 81.13,-839.43 94.49,-831.22"/>
<polygon fill="#666666" stroke="#666666" points="95.97,-834.42 102.65,-826.2 92.3,-828.45 95.97,-834.42"/>
</g>
<!-- src/formatter.rs -->
<g id="node10" class="node">
<title>src/formatter.rs</title>
<polygon fill="#ffffff" stroke="#333333" points="391.12,-1345.09 329.38,-1345.09 329.38,-1309.09 391.12,-1309.09 391.12,-1345.09"/>
<text xml:space="preserve" text-anchor="middle" x="360.25" y="-1328.84" font-family="Times,serif" font-size="10.00">formatter.rs</text>
<text xml:space="preserve" text-anchor="middle" x="360.25" y="-1317.59" font-family="Times,serif" font-size="10.00">16 fn</text>
</g>
<!-- src/main.rs&#45;&gt;src/formatter.rs -->
<g id="edge38" class="edge">
<title>src/main.rs&#45;&gt;src/formatter.rs</title>
<path fill="none" stroke="#666666" d="M27.86,-890.44C27.72,-964.2 31.22,-1237.89 90,-1295.09 150.57,-1354.03 258.6,-1346.04 317.74,-1336"/>
<polygon fill="#666666" stroke="#666666" points="318.18,-1339.48 327.4,-1334.26 316.94,-1332.59 318.18,-1339.48"/>
</g>
<!-- src/git_analysis.rs -->
<g id="node11" class="node">
<title>src/git_analysis.rs</title>
<polygon fill="#ff9966" stroke="#333333" points="172,-527.09 97.5,-527.09 97.5,-491.09 172,-491.09 172,-527.09"/>
<text xml:space="preserve" text-anchor="middle" x="134.75" y="-510.84" font-family="Times,serif" font-size="10.00">git_analysis.rs</text>
<text xml:space="preserve" text-anchor="middle" x="134.75" y="-499.59" font-family="Times,serif" font-size="10.00">10 fn</text>
</g>
<!-- src/main.rs&#45;&gt;src/git_analysis.rs -->
<g id="edge39" class="edge">
<title>src/main.rs&#45;&gt;src/git_analysis.rs</title>
<path fill="none" stroke="#666666" d="M29.64,-853.86C35.44,-792.5 56.42,-594.39 90,-541.09 91.3,-539.02 92.79,-537.04 94.42,-535.15"/>
<polygon fill="#666666" stroke="#666666" points="96.47,-538.04 101.17,-528.55 91.58,-533.04 96.47,-538.04"/>
</g>
<!-- src/global_config.rs -->
<g id="node12" class="node">
<title>src/global_config.rs</title>
<polygon fill="#ffffff" stroke="#333333" points="176.12,-1215.09 93.38,-1215.09 93.38,-1179.09 176.12,-1179.09 176.12,-1215.09"/>
<text xml:space="preserve" text-anchor="middle" x="134.75" y="-1198.84" font-family="Times,serif" font-size="10.00">global_config.rs</text>
<text xml:space="preserve" text-anchor="middle" x="134.75" y="-1187.59" font-family="Times,serif" font-size="10.00">6 fn</text>
</g>
<!-- src/main.rs&#45;&gt;src/global_config.rs -->
<g id="edge40" class="edge">
<title>src/main.rs&#45;&gt;src/global_config.rs</title>
<path fill="none" stroke="#666666" d="M27.52,-890.25C27.09,-938.92 31.57,-1074.7 90,-1165.09 91.33,-1167.14 92.84,-1169.11 94.48,-1170.99"/>
<polygon fill="#666666" stroke="#666666" points="91.65,-1173.12 101.27,-1177.57 96.52,-1168.09 91.65,-1173.12"/>
</g>
<!-- src/html_export.rs -->
<g id="node13" class="node">
<title>src/html_export.rs</title>
<polygon fill="#ff9966" stroke="#333333" points="290.75,-213.09 215.5,-213.09 215.5,-177.09 290.75,-177.09 290.75,-213.09"/>
<text xml:space="preserve" text-anchor="middle" x="253.12" y="-196.84" font-family="Times,serif" font-size="10.00">html_export.rs</text>
<text xml:space="preserve" text-anchor="middle" x="253.12" y="-185.59" font-family="Times,serif" font-size="10.00">8 fn</text>
</g>
<!-- src/main.rs&#45;&gt;src/html_export.rs -->
<g id="edge41" class="edge">
<title>src/main.rs&#45;&gt;src/html_export.rs</title>
<path fill="none" stroke="#666666" d="M29.44,-853.81C34.39,-795.12 52.56,-612.67 90,-569.09 117.62,-536.93 151.75,-568.14 179.5,-536.09 200.09,-512.31 235.11,-302.39 247.57,-224.24"/>
<polygon fill="#666666" stroke="#666666" points="250.96,-225.2 249.06,-214.78 244.04,-224.11 250.96,-225.2"/>
</g>
<!-- src/layers.rs -->
<g id="node14" class="node">
<title>src/layers.rs</title>
<polygon fill="#ff9966" stroke="#333333" points="484.25,-484.09 430.25,-484.09 430.25,-448.09 484.25,-448.09 484.25,-484.09"/>
<text xml:space="preserve" text-anchor="middle" x="457.25" y="-467.84" font-family="Times,serif" font-size="10.00">layers.rs</text>
<text xml:space="preserve" text-anchor="middle" x="457.25" y="-456.59" font-family="Times,serif" font-size="10.00">15 fn</text>
</g>
<!-- src/main.rs&#45;&gt;src/layers.rs -->
<g id="edge42" class="edge">
<title>src/main.rs&#45;&gt;src/layers.rs</title>
<path fill="none" stroke="#666666" d="M28.22,-853.67C29.66,-812.42 38.59,-711.42 90,-650.09 118.35,-616.27 139.95,-626.66 179.5,-607.09 266.09,-564.24 367.02,-512.31 419.82,-484.99"/>
<polygon fill="#666666" stroke="#666666" points="421.41,-488.11 428.68,-480.4 418.19,-481.89 421.41,-488.11"/>
</g>
<!-- src/mapper.rs -->
<g id="node15" class="node">
<title>src/mapper.rs</title>
<polygon fill="#ff9966" stroke="#333333" points="484.75,-909.09 429.75,-909.09 429.75,-873.09 484.75,-873.09 484.75,-909.09"/>
<text xml:space="preserve" text-anchor="middle" x="457.25" y="-892.84" font-family="Times,serif" font-size="10.00">mapper.rs</text>
<text xml:space="preserve" text-anchor="middle" x="457.25" y="-881.59" font-family="Times,serif" font-size="10.00">37 fn</text>
</g>
<!-- src/main.rs&#45;&gt;src/mapper.rs -->
<g id="edge43" class="edge">
<title>src/main.rs&#45;&gt;src/mapper.rs</title>
<path fill="none" stroke="#666666" d="M54.4,-878.24C65.35,-880.51 78.22,-882.84 90,-884.09 209.33,-896.68 351.7,-894.51 418.34,-892.5"/>
<polygon fill="#666666" stroke="#666666" points="418.1,-896.01 427.99,-892.19 417.88,-889.01 418.1,-896.01"/>
</g>
<!-- src/mcp.rs -->
<g id="node16" class="node">
<title>src/mcp.rs</title>
<polygon fill="#ffffff" stroke="#333333" points="280.12,-768.09 226.12,-768.09 226.12,-732.09 280.12,-732.09 280.12,-768.09"/>
<text xml:space="preserve" text-anchor="middle" x="253.12" y="-751.84" font-family="Times,serif" font-size="10.00">mcp.rs</text>
<text xml:space="preserve" text-anchor="middle" x="253.12" y="-740.59" font-family="Times,serif" font-size="10.00">40 fn</text>
</g>
<!-- src/main.rs&#45;&gt;src/mcp.rs -->
<g id="edge44" class="edge">
<title>src/main.rs&#45;&gt;src/mcp.rs</title>
<path fill="none" stroke="#666666" d="M54.23,-870.31C86,-867.13 140.13,-858.32 179.5,-834.09 202.32,-820.04 221.77,-796.48 234.79,-777.88"/>
<polygon fill="#666666" stroke="#666666" points="237.63,-779.92 240.31,-769.67 231.82,-776.01 237.63,-779.92"/>
</g>
<!-- src/memory.rs -->
<g id="node17" class="node">
<title>src/memory.rs</title>
<polygon fill="#ff9966" stroke="#333333" points="578,-1299.09 520.75,-1299.09 520.75,-1263.09 578,-1263.09 578,-1299.09"/>
<text xml:space="preserve" text-anchor="middle" x="549.38" y="-1282.84" font-family="Times,serif" font-size="10.00">memory.rs</text>
<text xml:space="preserve" text-anchor="middle" x="549.38" y="-1271.59" font-family="Times,serif" font-size="10.00">8 fn</text>
</g>
<!-- src/main.rs&#45;&gt;src/memory.rs -->
<g id="edge45" class="edge">
<title>src/main.rs&#45;&gt;src/memory.rs</title>
<path fill="none" stroke="#666666" d="M28.24,-890.51C29.54,-959.73 37.81,-1202.97 90,-1255.09 141.64,-1306.65 179.15,-1281.09 252.12,-1281.09 252.12,-1281.09 252.12,-1281.09 361.25,-1281.09 412.48,-1281.09 471.59,-1281.09 509.44,-1281.09"/>
<polygon fill="#666666" stroke="#666666" points="508.96,-1284.59 518.96,-1281.09 508.96,-1277.59 508.96,-1284.59"/>
</g>
<!-- src/reach.rs -->
<g id="node18" class="node">
<title>src/reach.rs</title>
<polygon fill="#ff9966" stroke="#333333" points="161.75,-1085.09 107.75,-1085.09 107.75,-1049.09 161.75,-1049.09 161.75,-1085.09"/>
<text xml:space="preserve" text-anchor="middle" x="134.75" y="-1068.84" font-family="Times,serif" font-size="10.00">reach.rs</text>
<text xml:space="preserve" text-anchor="middle" x="134.75" y="-1057.59" font-family="Times,serif" font-size="10.00">28 fn</text>
</g>
<!-- src/main.rs&#45;&gt;src/reach.rs -->
<g id="edge46" class="edge">
<title>src/main.rs&#45;&gt;src/reach.rs</title>
<path fill="none" stroke="#666666" d="M31.39,-890.39C38.05,-922.42 55.31,-989.58 90,-1035.09 92.55,-1038.43 95.53,-1041.57 98.73,-1044.49"/>
<polygon fill="#666666" stroke="#666666" points="96.4,-1047.11 106.36,-1050.72 100.82,-1041.68 96.4,-1047.11"/>
</g>
<!-- src/scanner.rs -->
<g id="node19" class="node">
<title>src/scanner.rs</title>
<polygon fill="#ff9966" stroke="#333333" points="577.25,-1087.09 521.5,-1087.09 521.5,-1051.09 577.25,-1051.09 577.25,-1087.09"/>
<text xml:space="preserve" text-anchor="middle" x="549.38" y="-1070.84" font-family="Times,serif" font-size="10.00">scanner.rs</text>
<text xml:space="preserve" text-anchor="middle" x="549.38" y="-1059.59" font-family="Times,serif" font-size="10.00">26 fn</text>
</g>
<!-- src/main.rs&#45;&gt;src/scanner.rs -->
<g id="edge47" class="edge">
<title>src/main.rs&#45;&gt;src/scanner.rs</title>
<path fill="none" stroke="#666666" d="M30.49,-890.41C37.41,-938.63 58.53,-1067.17 90,-1094.09 145.13,-1141.24 179.58,-1113.09 252.12,-1113.09 252.12,-1113.09 252.12,-1113.09 361.25,-1113.09 414.25,-1113.09 473.51,-1096.15 510.87,-1083.29"/>
<polygon fill="#666666" stroke="#666666" points="511.57,-1086.76 519.83,-1080.13 509.24,-1080.16 511.57,-1086.76"/>
</g>
<!-- src/search.rs -->
<g id="node20" class="node">
<title>src/search.rs</title>
<polygon fill="#ff9966" stroke="#333333" points="280.12,-1039.09 226.12,-1039.09 226.12,-1003.09 280.12,-1003.09 280.12,-1039.09"/>
<text xml:space="preserve" text-anchor="middle" x="253.12" y="-1022.84" font-family="Times,serif" font-size="10.00">search.rs</text>
<text xml:space="preserve" text-anchor="middle" x="253.12" y="-1011.59" font-family="Times,serif" font-size="10.00">38 fn</text>
</g>
<!-- src/main.rs&#45;&gt;src/search.rs -->
<g id="edge48" class="edge">
<title>src/main.rs&#45;&gt;src/search.rs</title>
<path fill="none" stroke="#666666" d="M30.98,-890.33C36.76,-919.26 52.38,-975.16 90,-1002.09 126.23,-1028.02 179.11,-1029.27 214.53,-1026.37"/>
<polygon fill="#666666" stroke="#666666" points="214.7,-1029.87 224.31,-1025.4 214.01,-1022.9 214.7,-1029.87"/>
</g>
<!-- src/sync.rs -->
<g id="node21" class="node">
<title>src/sync.rs</title>
<polygon fill="#ff9966" stroke="#333333" points="484.25,-1177.09 430.25,-1177.09 430.25,-1141.09 484.25,-1141.09 484.25,-1177.09"/>
<text xml:space="preserve" text-anchor="middle" x="457.25" y="-1160.84" font-family="Times,serif" font-size="10.00">sync.rs</text>
<text xml:space="preserve" text-anchor="middle" x="457.25" y="-1149.59" font-family="Times,serif" font-size="10.00">9 fn</text>
</g>
<!-- src/main.rs&#45;&gt;src/sync.rs -->
<g id="edge49" class="edge">
<title>src/main.rs&#45;&gt;src/sync.rs</title>
<path fill="none" stroke="#666666" d="M28.27,-890.18C29.66,-955.92 38.19,-1180.61 90,-1224.09 186.61,-1305.17 348.99,-1224.69 420.55,-1181.98"/>
<polygon fill="#666666" stroke="#666666" points="422,-1185.19 428.74,-1177.01 418.37,-1179.21 422,-1185.19"/>
</g>
<!-- src/token_metrics.rs -->
<g id="node22" class="node">
<title>src/token_metrics.rs</title>
<polygon fill="#ff9966" stroke="#333333" points="176.12,-419.09 93.38,-419.09 93.38,-383.09 176.12,-383.09 176.12,-419.09"/>
<text xml:space="preserve" text-anchor="middle" x="134.75" y="-402.84" font-family="Times,serif" font-size="10.00">token_metrics.rs</text>
<text xml:space="preserve" text-anchor="middle" x="134.75" y="-391.59" font-family="Times,serif" font-size="10.00">27 fn</text>
</g>
<!-- src/main.rs&#45;&gt;src/token_metrics.rs -->
<g id="edge50" class="edge">
<title>src/main.rs&#45;&gt;src/token_metrics.rs</title>
<path fill="none" stroke="#666666" d="M28.52,-853.75C30.82,-782.07 42.06,-520.62 91.55,-429.34"/>
<polygon fill="#666666" stroke="#666666" points="94.49,-431.23 96.66,-420.86 88.5,-427.62 94.49,-431.23"/>
</g>
<!-- src/webhooks.rs -->
<g id="node23" class="node">
<title>src/webhooks.rs</title>
<polygon fill="#ffffff" stroke="#333333" points="393.75,-1177.09 326.75,-1177.09 326.75,-1141.09 393.75,-1141.09 393.75,-1177.09"/>
<text xml:space="preserve" text-anchor="middle" x="360.25" y="-1160.84" font-family="Times,serif" font-size="10.00">webhooks.rs</text>
<text xml:space="preserve" text-anchor="middle" x="360.25" y="-1149.59" font-family="Times,serif" font-size="10.00">29 fn</text>
</g>
<!-- src/main.rs&#45;&gt;src/webhooks.rs -->
<g id="edge51" class="edge">
<title>src/main.rs&#45;&gt;src/webhooks.rs</title>
<path fill="none" stroke="#666666" d="M29.78,-890.37C35.33,-943.37 54.12,-1095.28 90,-1127.09 152.09,-1182.12 256.31,-1176.54 315.22,-1167.73"/>
<polygon fill="#666666" stroke="#666666" points="315.55,-1171.22 324.87,-1166.18 314.45,-1164.31 315.55,-1171.22"/>
</g>
<!-- src/answer.rs&#45;&gt;src/mapper.rs -->
<g id="edge1" class="edge">
<title>src/answer.rs&#45;&gt;src/mapper.rs</title>
<path fill="none" stroke="#666666" d="M161.9,-976.57C209.96,-978.3 314.64,-977.34 393.75,-943.09 407.61,-937.08 420.81,-927.01 431.47,-917.32"/>
<polygon fill="#666666" stroke="#666666" points="433.89,-919.85 438.7,-910.41 429.05,-914.79 433.89,-919.85"/>
</g>
<!-- src/answer.rs&#45;&gt;src/search.rs -->
<g id="edge2" class="edge">
<title>src/answer.rs&#45;&gt;src/search.rs</title>
<path fill="none" stroke="#666666" d="M162.16,-985.52C177.93,-991.76 198.2,-999.77 215.5,-1006.61"/>
<polygon fill="#666666" stroke="#666666" points="213.83,-1009.71 224.41,-1010.13 216.4,-1003.2 213.83,-1009.71"/>
</g>
<!-- src/api.rs&#45;&gt;src/layers.rs -->
<g id="edge3" class="edge">
<title>src/api.rs&#45;&gt;src/layers.rs</title>
<path fill="none" stroke="#666666" d="M382.76,-658.72C386.79,-654.54 390.7,-649.9 393.75,-645.09 424.1,-597.16 441.91,-532.63 450.31,-495.58"/>
<polygon fill="#666666" stroke="#666666" points="453.68,-496.57 452.39,-486.05 446.84,-495.08 453.68,-496.57"/>
</g>
<!-- src/api.rs&#45;&gt;src/mapper.rs -->
<g id="edge4" class="edge">
<title>src/api.rs&#45;&gt;src/mapper.rs</title>
<path fill="none" stroke="#666666" d="M369.35,-695.33C385.9,-732.6 423.68,-817.73 443.53,-862.44"/>
<polygon fill="#666666" stroke="#666666" points="440.3,-863.78 447.56,-871.5 446.7,-860.94 440.3,-863.78"/>
</g>
<!-- src/api.rs&#45;&gt;src/sync.rs -->
<g id="edge5" class="edge">
<title>src/api.rs&#45;&gt;src/sync.rs</title>
<path fill="none" stroke="#666666" d="M364.86,-695.39C379.25,-768.39 432.6,-1039.08 450.41,-1129.48"/>
<polygon fill="#666666" stroke="#666666" points="446.98,-1130.14 452.35,-1139.28 453.85,-1128.79 446.98,-1130.14"/>
</g>
<!-- src/call_graph.rs&#45;&gt;src/api.rs -->
<g id="edge6" class="edge">
<title>src/call_graph.rs&#45;&gt;src/api.rs</title>
<path fill="none" stroke="#666666" d="M287.68,-677.09C298.44,-677.09 310.44,-677.09 321.49,-677.09"/>
<polygon fill="#666666" stroke="#666666" points="321.49,-680.59 331.49,-677.09 321.49,-673.59 321.49,-680.59"/>
</g>
<!-- src/cross_call.rs&#45;&gt;src/call_graph.rs -->
<g id="edge7" class="edge">
<title>src/cross_call.rs&#45;&gt;src/call_graph.rs</title>
<path fill="none" stroke="#666666" d="M167.86,-677.09C180.03,-677.09 194.13,-677.09 207.27,-677.09"/>
<polygon fill="#666666" stroke="#666666" points="206.98,-680.59 216.98,-677.09 206.98,-673.59 206.98,-680.59"/>
</g>
<!-- src/cross_call.rs&#45;&gt;src/mapper.rs -->
<g id="edge8" class="edge">
<title>src/cross_call.rs&#45;&gt;src/mapper.rs</title>
<path fill="none" stroke="#666666" d="M167.61,-690.62C171.94,-693.34 176.06,-696.49 179.5,-700.09 205.58,-727.42 188.4,-750.77 215.5,-777.09 277.42,-837.2 316.85,-814.92 393.75,-854.09 402.22,-858.4 411.12,-863.38 419.46,-868.26"/>
<polygon fill="#666666" stroke="#666666" points="417.61,-871.23 427.99,-873.34 421.19,-865.22 417.61,-871.23"/>
</g>
<!-- src/diagram.rs&#45;&gt;src/api.rs -->
<g id="edge9" class="edge">
<title>src/diagram.rs&#45;&gt;src/api.rs</title>
<path fill="none" stroke="#666666" d="M263.27,-484.44C281.64,-521.31 323.12,-604.57 345.05,-648.59"/>
<polygon fill="#666666" stroke="#666666" points="341.78,-649.88 349.38,-657.27 348.05,-646.76 341.78,-649.88"/>
</g>
<!-- src/diagram.rs&#45;&gt;src/layers.rs -->
<g id="edge10" class="edge">
<title>src/diagram.rs&#45;&gt;src/layers.rs</title>
<path fill="none" stroke="#666666" d="M282.23,-466.09C317.79,-466.09 379.17,-466.09 418.71,-466.09"/>
<polygon fill="#666666" stroke="#666666" points="418.47,-469.59 428.47,-466.09 418.47,-462.59 418.47,-469.59"/>
</g>
<!-- src/diagram_export.rs&#45;&gt;src/diagram.rs -->
<g id="edge11" class="edge">
<title>src/diagram_export.rs&#45;&gt;src/diagram.rs</title>
<path fill="none" stroke="#666666" d="M168.22,-365.32C172.17,-368.05 176.03,-371 179.5,-374.09 200.85,-393.11 220.64,-418.96 234.15,-438.42"/>
<polygon fill="#666666" stroke="#666666" points="231.26,-440.39 239.77,-446.69 237.05,-436.45 231.26,-440.39"/>
</g>
<!-- src/extractor.rs&#45;&gt;src/mapper.rs -->
<g id="edge12" class="edge">
<title>src/extractor.rs&#45;&gt;src/mapper.rs</title>
<path fill="none" stroke="#666666" d="M165.61,-814.91C224.25,-830.28 354.32,-864.37 418.68,-881.24"/>
<polygon fill="#666666" stroke="#666666" points="417.51,-884.55 428.07,-883.7 419.29,-877.78 417.51,-884.55"/>
</g>
<!-- src/formatter.rs&#45;&gt;src/memory.rs -->
<g id="edge13" class="edge">
<title>src/formatter.rs&#45;&gt;src/memory.rs</title>
<path fill="none" stroke="#666666" d="M391.31,-1319.7C423.48,-1311.79 474.59,-1299.22 509.72,-1290.59"/>
<polygon fill="#666666" stroke="#666666" points="510.18,-1294.08 519.05,-1288.29 508.51,-1287.28 510.18,-1294.08"/>
</g>
<!-- src/html_export.rs&#45;&gt;src/api.rs -->
<g id="edge14" class="edge">
<title>src/html_export.rs&#45;&gt;src/api.rs</title>
<path fill="none" stroke="#666666" d="M279.9,-213.37C284.11,-217.44 287.99,-222.05 290.75,-227.09 330.92,-300.28 351.45,-559.25 357.39,-647.43"/>
<polygon fill="#666666" stroke="#666666" points="353.88,-647.44 358.03,-657.19 360.87,-646.98 353.88,-647.44"/>
</g>
<!-- src/html_export.rs&#45;&gt;src/layers.rs -->
<g id="edge15" class="edge">
<title>src/html_export.rs&#45;&gt;src/layers.rs</title>
<path fill="none" stroke="#666666" d="M277.03,-213.55C281.77,-217.79 286.59,-222.43 290.75,-227.09 353.43,-297.24 412.58,-391.95 440.1,-438.25"/>
<polygon fill="#666666" stroke="#666666" points="436.93,-439.76 445.02,-446.59 442.96,-436.2 436.93,-439.76"/>
</g>
<!-- src/mcp.rs&#45;&gt;src/api.rs -->
<g id="edge52" class="edge">
<title>src/mcp.rs&#45;&gt;src/api.rs</title>
<path fill="none" stroke="#666666" d="M280.38,-731.85C293.43,-722.8 309.38,-711.71 323.52,-701.9"/>
<polygon fill="#666666" stroke="#666666" points="325.5,-704.78 331.72,-696.2 321.51,-699.03 325.5,-704.78"/>
</g>
<!-- src/reach.rs&#45;&gt;src/mapper.rs -->
<g id="edge53" class="edge">
<title>src/reach.rs&#45;&gt;src/mapper.rs</title>
<path fill="none" stroke="#666666" d="M162.07,-1068.09C193.81,-1068.36 248.2,-1065.79 290.75,-1048.09 355.7,-1021.07 410.2,-955.96 437.48,-918.62"/>
<polygon fill="#666666" stroke="#666666" points="440.27,-920.73 443.24,-910.56 434.58,-916.66 440.27,-920.73"/>
</g>
<!-- src/reach.rs&#45;&gt;src/search.rs -->
<g id="edge54" class="edge">
<title>src/reach.rs&#45;&gt;src/search.rs</title>
<path fill="none" stroke="#666666" d="M162.16,-1056.65C177.93,-1050.41 198.2,-1042.4 215.5,-1035.56"/>
<polygon fill="#666666" stroke="#666666" points="216.4,-1038.97 224.41,-1032.04 213.83,-1032.46 216.4,-1038.97"/>
</g>
<!-- src/search.rs&#45;&gt;src/scanner.rs -->
<g id="edge55" class="edge">
<title>src/search.rs&#45;&gt;src/scanner.rs</title>
<path fill="none" stroke="#666666" d="M280.5,-1025.39C332.71,-1033.91 449.43,-1052.95 510.1,-1062.84"/>
<polygon fill="#666666" stroke="#666666" points="509.18,-1066.24 519.61,-1064.39 510.3,-1059.33 509.18,-1066.24"/>
</g>
<!-- src/sync.rs&#45;&gt;src/memory.rs -->
<g id="edge56" class="edge">
<title>src/sync.rs&#45;&gt;src/memory.rs</title>
<path fill="none" stroke="#666666" d="M471.74,-1177.35C486.68,-1197.57 510.9,-1230.36 528.12,-1253.66"/>
<polygon fill="#666666" stroke="#666666" points="525.13,-1255.52 533.89,-1261.48 530.76,-1251.36 525.13,-1255.52"/>
</g>
<!-- src/sync.rs&#45;&gt;src/scanner.rs -->
<g id="edge57" class="edge">
<title>src/sync.rs&#45;&gt;src/scanner.rs</title>
<path fill="none" stroke="#666666" d="M476.49,-1140.87C489.59,-1127.79 507.46,-1109.94 522.1,-1095.32"/>
<polygon fill="#666666" stroke="#666666" points="524.18,-1098.19 528.78,-1088.65 519.23,-1093.24 524.18,-1098.19"/>
</g>
<!-- src/webhooks.rs&#45;&gt;src/sync.rs -->
<g id="edge58" class="edge">
<title>src/webhooks.rs&#45;&gt;src/sync.rs</title>
<path fill="none" stroke="#666666" d="M394.21,-1159.09C402.06,-1159.09 410.49,-1159.09 418.54,-1159.09"/>
<polygon fill="#666666" stroke="#666666" points="418.42,-1162.59 428.42,-1159.09 418.42,-1155.59 418.42,-1162.59"/>
</g>
<!-- src/lib.rs -->
<g id="node24" class="node">
<title>src/lib.rs</title>
<polygon fill="#ff9966" stroke="#333333" points="54,-342.09 0,-342.09 0,-306.09 54,-306.09 54,-342.09"/>
<text xml:space="preserve" text-anchor="middle" x="27" y="-325.84" font-family="Times,serif" font-size="10.00">lib.rs</text>
<text xml:space="preserve" text-anchor="middle" x="27" y="-314.59" font-family="Times,serif" font-size="10.00">45 fn</text>
</g>
<!-- src/lib.rs&#45;&gt;src/api.rs -->
<g id="edge16" class="edge">
<title>src/lib.rs&#45;&gt;src/api.rs</title>
<path fill="none" stroke="#666666" d="M42.64,-305.73C54.02,-293.03 71.02,-277.19 90,-270.09 127.25,-256.14 144.48,-251.21 179.5,-270.09 320.82,-346.25 351.15,-567 357.56,-647.37"/>
<polygon fill="#666666" stroke="#666666" points="354.05,-647.37 358.26,-657.09 361.04,-646.86 354.05,-647.37"/>
</g>
<!-- src/lib.rs&#45;&gt;src/call_graph.rs -->
<g id="edge17" class="edge">
<title>src/lib.rs&#45;&gt;src/call_graph.rs</title>
<path fill="none" stroke="#666666" d="M54.33,-314.02C87.46,-303.24 144.25,-291.29 179.5,-320.09 181.11,-321.4 229.34,-562.74 246.3,-647.82"/>
<polygon fill="#666666" stroke="#666666" points="242.84,-648.36 248.22,-657.49 249.7,-646.99 242.84,-648.36"/>
</g>
<!-- src/lib.rs&#45;&gt;src/class_graph.rs -->
<g id="edge18" class="edge">
<title>src/lib.rs&#45;&gt;src/class_graph.rs</title>
<path fill="none" stroke="#666666" d="M35.62,-342.4C45.59,-364.68 64.78,-402.48 90,-428.09 90.47,-428.56 90.95,-429.04 91.44,-429.5"/>
<polygon fill="#666666" stroke="#666666" points="88.9,-431.95 98.83,-435.66 93.38,-426.57 88.9,-431.95"/>
</g>
<!-- src/lib.rs&#45;&gt;src/cross_call.rs -->
<g id="edge19" class="edge">
<title>src/lib.rs&#45;&gt;src/cross_call.rs</title>
<path fill="none" stroke="#666666" d="M33.29,-342.55C43.87,-379.4 68.48,-464.67 90,-536.09 101.7,-574.91 115.65,-619.6 124.6,-648.07"/>
<polygon fill="#666666" stroke="#666666" points="121.2,-648.93 127.54,-657.42 127.87,-646.83 121.2,-648.93"/>
</g>
<!-- src/lib.rs&#45;&gt;src/diagram.rs -->
<g id="edge20" class="edge">
<title>src/lib.rs&#45;&gt;src/diagram.rs</title>
<path fill="none" stroke="#666666" d="M51.94,-305.68C62.91,-298.37 76.47,-290.82 90,-287.09 128.35,-276.51 146.51,-264.87 179.5,-287.09 229.38,-320.68 245.01,-395.02 249.91,-436.56"/>
<polygon fill="#666666" stroke="#666666" points="246.4,-436.73 250.91,-446.32 253.37,-436.02 246.4,-436.73"/>
</g>
<!-- src/lib.rs&#45;&gt;src/diagram_export.rs -->
<g id="edge21" class="edge">
<title>src/lib.rs&#45;&gt;src/diagram_export.rs</title>
<path fill="none" stroke="#666666" d="M54.41,-329.83C61.81,-331.44 70.15,-333.25 78.56,-335.08"/>
<polygon fill="#666666" stroke="#666666" points="77.6,-338.46 88.11,-337.16 79.08,-331.62 77.6,-338.46"/>
</g>
<!-- src/lib.rs&#45;&gt;src/extractor.rs -->
<g id="edge22" class="edge">
<title>src/lib.rs&#45;&gt;src/extractor.rs</title>
<path fill="none" stroke="#666666" d="M28.12,-342.45C29.07,-401.62 36.37,-591.88 90,-737.09 95.49,-751.94 104.38,-767.01 112.73,-779.34"/>
<polygon fill="#666666" stroke="#666666" points="109.74,-781.18 118.35,-787.35 115.47,-777.15 109.74,-781.18"/>
</g>
<!-- src/lib.rs&#45;&gt;src/git_analysis.rs -->
<g id="edge23" class="edge">
<title>src/lib.rs&#45;&gt;src/git_analysis.rs</title>
<path fill="none" stroke="#666666" d="M31.18,-342.11C37.52,-373.59 54.3,-439.34 90,-482.09 90.25,-482.38 90.5,-482.68 90.75,-482.97"/>
<polygon fill="#666666" stroke="#666666" points="88.25,-485.42 97.94,-489.71 93.05,-480.32 88.25,-485.42"/>
</g>
<!-- src/lib.rs&#45;&gt;src/html_export.rs -->
<g id="edge24" class="edge">
<title>src/lib.rs&#45;&gt;src/html_export.rs</title>
<path fill="none" stroke="#666666" d="M32.26,-305.99C39.39,-280.13 56.39,-233.28 90,-211.09 123.4,-189.03 169.41,-186.47 203.88,-188.59"/>
<polygon fill="#666666" stroke="#666666" points="203.35,-192.06 213.59,-189.35 203.89,-185.08 203.35,-192.06"/>
</g>
<!-- src/lib.rs&#45;&gt;src/layers.rs -->
<g id="edge25" class="edge">
<title>src/lib.rs&#45;&gt;src/layers.rs</title>
<path fill="none" stroke="#666666" d="M27.58,-305.85C27.79,-266.78 34.49,-175.3 90,-135.09 144.66,-95.49 341.78,-92.01 393.75,-135.09 439.92,-173.35 452.23,-362.73 455.3,-436.55"/>
<polygon fill="#666666" stroke="#666666" points="451.79,-436.39 455.67,-446.25 458.78,-436.12 451.79,-436.39"/>
</g>
<!-- src/lib.rs&#45;&gt;src/mapper.rs -->
<g id="edge26" class="edge">
<title>src/lib.rs&#45;&gt;src/mapper.rs</title>
<path fill="none" stroke="#666666" d="M30.32,-306.02C35.27,-275.45 49.93,-213.95 90,-184.09 161.77,-130.61 220.75,-112.3 290.75,-168.09 402.7,-257.31 445.03,-736.95 454.23,-861.51"/>
<polygon fill="#666666" stroke="#666666" points="450.72,-861.52 454.93,-871.24 457.7,-861.01 450.72,-861.52"/>
</g>
<!-- src/lib.rs&#45;&gt;src/scanner.rs -->
<g id="edge27" class="edge">
<title>src/lib.rs&#45;&gt;src/scanner.rs</title>
<path fill="none" stroke="#666666" d="M27.22,-305.77C26.5,-263.41 31.09,-158.15 90,-104.09 144.05,-54.48 178.76,-73.09 252.12,-73.09 252.12,-73.09 252.12,-73.09 361.25,-73.09 475.71,-73.09 358.43,239.35 484.75,-439.09 527.32,-667.69 542.98,-948.64 547.14,-1039.35"/>
<polygon fill="#666666" stroke="#666666" points="543.63,-1039.28 547.57,-1049.12 550.62,-1038.97 543.63,-1039.28"/>
</g>
<!-- src/lib.rs&#45;&gt;src/search.rs -->
<g id="edge28" class="edge">
<title>src/lib.rs&#45;&gt;src/search.rs</title>
<path fill="none" stroke="#666666" d="M29.32,-342.53C34.4,-409.69 54.16,-640.65 90,-704.09 115.67,-749.52 150.91,-736.43 179.5,-780.09 223.76,-847.68 241.97,-943.36 248.67,-991.29"/>
<polygon fill="#666666" stroke="#666666" points="245.2,-991.71 249.97,-1001.17 252.14,-990.8 245.2,-991.71"/>
</g>
<!-- src/lib.rs&#45;&gt;src/token_metrics.rs -->
<g id="edge29" class="edge">
<title>src/lib.rs&#45;&gt;src/token_metrics.rs</title>
<path fill="none" stroke="#666666" d="M49.29,-342.36C61.02,-352.14 76,-364.18 90,-374.09 91.15,-374.9 92.32,-375.71 93.51,-376.53"/>
<polygon fill="#666666" stroke="#666666" points="91.3,-379.26 101.57,-381.85 95.16,-373.42 91.3,-379.26"/>
</g>
</g>
</svg>
