<?xml version="1.0" encoding="UTF-8" standalone="no"?>
<!DOCTYPE svg PUBLIC "-//W3C//DTD SVG 1.1//EN"
 "http://www.w3.org/Graphics/SVG/1.1/DTD/svg11.dtd">
<!-- Generated by graphviz version 14.1.5 (20260411.2331)
 -->
<!-- Title: navigator Pages: 1 -->
<svg width="503pt" height="516pt"
 viewBox="0.00 0.00 503.00 516.00" xmlns="http://www.w3.org/2000/svg" xmlns:xlink="http://www.w3.org/1999/xlink">
<g id="graph0" class="graph" transform="scale(1 1) rotate(0) translate(4 512)">
<title>navigator</title>
<polygon fill="white" stroke="none" points="-4,4 -4,-512 498.75,-512 498.75,4 -4,4"/>
<!-- mapper&#45;core/nyx&#45;navigator/src/api.rs -->
<g id="node1" class="node">
<title>mapper&#45;core/nyx&#45;navigator/src/api.rs</title>
<polygon fill="#ff9966" stroke="#333333" points="297.25,-140 243.25,-140 243.25,-104 297.25,-104 297.25,-140"/>
<text xml:space="preserve" text-anchor="middle" x="270.25" y="-123.75" font-family="Times,serif" font-size="10.00">api.rs</text>
<text xml:space="preserve" text-anchor="middle" x="270.25" y="-112.5" font-family="Times,serif" font-size="10.00">56 fn</text>
</g>
<!-- mapper&#45;core/nyx&#45;navigator/src/sync.rs -->
<g id="node3" class="node">
<title>mapper&#45;core/nyx&#45;navigator/src/sync.rs</title>
<polygon fill="#ff9966" stroke="#333333" points="397.62,-378 343.62,-378 343.62,-342 397.62,-342 397.62,-378"/>
<text xml:space="preserve" text-anchor="middle" x="370.62" y="-361.75" font-family="Times,serif" font-size="10.00">sync.rs</text>
<text xml:space="preserve" text-anchor="middle" x="370.62" y="-350.5" font-family="Times,serif" font-size="10.00">9 fn</text>
</g>
<!-- mapper&#45;core/nyx&#45;navigator/src/api.rs&#45;&gt;mapper&#45;core/nyx&#45;navigator/src/sync.rs -->
<g id="edge3" class="edge">
<title>mapper&#45;core/nyx&#45;navigator/src/api.rs&#45;&gt;mapper&#45;core/nyx&#45;navigator/src/sync.rs</title>
<path fill="none" stroke="#666666" d="M281.77,-140.28C288.76,-153.05 297.74,-170.66 303.75,-187 325.66,-246.53 307.51,-272.91 340.47,-331.78"/>
<polygon fill="#666666" stroke="#666666" points="337.34,-333.38 345.44,-340.21 343.37,-329.82 337.34,-333.38"/>
</g>
<!-- mapper&#45;core/nyx&#45;navigator/src/mapper.rs -->
<g id="node4" class="node">
<title>mapper&#45;core/nyx&#45;navigator/src/mapper.rs</title>
<polygon fill="#ff9966" stroke="#333333" points="398.12,-209 343.12,-209 343.12,-173 398.12,-173 398.12,-209"/>
<text xml:space="preserve" text-anchor="middle" x="370.62" y="-192.75" font-family="Times,serif" font-size="10.00">mapper.rs</text>
<text xml:space="preserve" text-anchor="middle" x="370.62" y="-181.5" font-family="Times,serif" font-size="10.00">37 fn</text>
</g>
<!-- mapper&#45;core/nyx&#45;navigator/src/api.rs&#45;&gt;mapper&#45;core/nyx&#45;navigator/src/mapper.rs -->
<g id="edge2" class="edge">
<title>mapper&#45;core/nyx&#45;navigator/src/api.rs&#45;&gt;mapper&#45;core/nyx&#45;navigator/src/mapper.rs</title>
<path fill="none" stroke="#666666" d="M297.61,-140.49C308.84,-148.37 322.11,-157.67 334.17,-166.13"/>
<polygon fill="#666666" stroke="#666666" points="332.09,-168.95 342.29,-171.83 336.11,-163.22 332.09,-168.95"/>
</g>
<!-- mapper&#45;core/nyx&#45;navigator/src/layers.rs -->
<g id="node7" class="node">
<title>mapper&#45;core/nyx&#45;navigator/src/layers.rs</title>
<polygon fill="#ff9966" stroke="#333333" points="397.62,-90 343.62,-90 343.62,-54 397.62,-54 397.62,-90"/>
<text xml:space="preserve" text-anchor="middle" x="370.62" y="-73.75" font-family="Times,serif" font-size="10.00">layers.rs</text>
<text xml:space="preserve" text-anchor="middle" x="370.62" y="-62.5" font-family="Times,serif" font-size="10.00">15 fn</text>
</g>
<!-- mapper&#45;core/nyx&#45;navigator/src/api.rs&#45;&gt;mapper&#45;core/nyx&#45;navigator/src/layers.rs -->
<g id="edge1" class="edge">
<title>mapper&#45;core/nyx&#45;navigator/src/api.rs&#45;&gt;mapper&#45;core/nyx&#45;navigator/src/layers.rs</title>
<path fill="none" stroke="#666666" d="M297.61,-108.6C308.53,-103.05 321.37,-96.52 333.17,-90.53"/>
<polygon fill="#666666" stroke="#666666" points="334.51,-93.77 341.84,-86.12 331.34,-87.53 334.51,-93.77"/>
</g>
<!-- mapper&#45;core/nyx&#45;navigator/src/main.rs -->
<g id="node2" class="node">
<title>mapper&#45;core/nyx&#45;navigator/src/main.rs</title>
<polygon fill="#ff9966" stroke="#333333" points="297.25,-428 243.25,-428 243.25,-392 297.25,-392 297.25,-428"/>
<text xml:space="preserve" text-anchor="middle" x="270.25" y="-411.75" font-family="Times,serif" font-size="10.00">main.rs</text>
<text xml:space="preserve" text-anchor="middle" x="270.25" y="-400.5" font-family="Times,serif" font-size="10.00">26 fn</text>
</g>
<!-- mapper&#45;core/nyx&#45;navigator/src/main.rs&#45;&gt;mapper&#45;core/nyx&#45;navigator/src/sync.rs -->
<g id="edge19" class="edge">
<title>mapper&#45;core/nyx&#45;navigator/src/main.rs&#45;&gt;mapper&#45;core/nyx&#45;navigator/src/sync.rs</title>
<path fill="none" stroke="#666666" d="M297.61,-396.6C308.53,-391.05 321.37,-384.52 333.17,-378.53"/>
<polygon fill="#666666" stroke="#666666" points="334.51,-381.77 341.84,-374.12 331.34,-375.53 334.51,-381.77"/>
</g>
<!-- mapper&#45;core/nyx&#45;navigator/src/main.rs&#45;&gt;mapper&#45;core/nyx&#45;navigator/src/mapper.rs -->
<g id="edge16" class="edge">
<title>mapper&#45;core/nyx&#45;navigator/src/main.rs&#45;&gt;mapper&#45;core/nyx&#45;navigator/src/mapper.rs</title>
<path fill="none" stroke="#666666" d="M296.47,-391.55C299.16,-388.89 301.67,-386.02 303.75,-383 304.96,-381.25 341.73,-273.18 359.8,-219.97"/>
<polygon fill="#666666" stroke="#666666" points="363.06,-221.23 362.96,-210.64 356.44,-218.98 363.06,-221.23"/>
</g>
<!-- mapper&#45;core/nyx&#45;navigator/src/scanner.rs -->
<g id="node5" class="node">
<title>mapper&#45;core/nyx&#45;navigator/src/scanner.rs</title>
<polygon fill="#ff9966" stroke="#333333" points="494,-351 438.25,-351 438.25,-315 494,-315 494,-351"/>
<text xml:space="preserve" text-anchor="middle" x="466.12" y="-334.75" font-family="Times,serif" font-size="10.00">scanner.rs</text>
<text xml:space="preserve" text-anchor="middle" x="466.12" y="-323.5" font-family="Times,serif" font-size="10.00">26 fn</text>
</g>
<!-- mapper&#45;core/nyx&#45;navigator/src/main.rs&#45;&gt;mapper&#45;core/nyx&#45;navigator/src/scanner.rs -->
<g id="edge18" class="edge">
<title>mapper&#45;core/nyx&#45;navigator/src/main.rs&#45;&gt;mapper&#45;core/nyx&#45;navigator/src/scanner.rs</title>
<path fill="none" stroke="#666666" d="M297.67,-409.36C324.88,-407.8 367.94,-402.77 401.5,-387 415.78,-380.29 429.42,-369.52 440.39,-359.35"/>
<polygon fill="#666666" stroke="#666666" points="442.74,-361.95 447.48,-352.48 437.86,-356.92 442.74,-361.95"/>
</g>
<!-- mapper&#45;core/nyx&#45;navigator/src/memory.rs -->
<g id="node9" class="node">
<title>mapper&#45;core/nyx&#45;navigator/src/memory.rs</title>
<polygon fill="#ff9966" stroke="#333333" points="494.75,-462 437.5,-462 437.5,-426 494.75,-426 494.75,-462"/>
<text xml:space="preserve" text-anchor="middle" x="466.12" y="-445.75" font-family="Times,serif" font-size="10.00">memory.rs</text>
<text xml:space="preserve" text-anchor="middle" x="466.12" y="-434.5" font-family="Times,serif" font-size="10.00">8 fn</text>
</g>
<!-- mapper&#45;core/nyx&#45;navigator/src/main.rs&#45;&gt;mapper&#45;core/nyx&#45;navigator/src/memory.rs -->
<g id="edge17" class="edge">
<title>mapper&#45;core/nyx&#45;navigator/src/main.rs&#45;&gt;mapper&#45;core/nyx&#45;navigator/src/memory.rs</title>
<path fill="none" stroke="#666666" d="M297.4,-414.59C330.46,-420.38 387.69,-430.42 425.97,-437.13"/>
<polygon fill="#666666" stroke="#666666" points="425.26,-440.56 435.71,-438.84 426.46,-433.67 425.26,-440.56"/>
</g>
<!-- mapper&#45;core/nyx&#45;navigator/src/formatter.rs -->
<g id="node10" class="node">
<title>mapper&#45;core/nyx&#45;navigator/src/formatter.rs</title>
<polygon fill="#ffffff" stroke="#333333" points="401.5,-508 339.75,-508 339.75,-472 401.5,-472 401.5,-508"/>
<text xml:space="preserve" text-anchor="middle" x="370.62" y="-491.75" font-family="Times,serif" font-size="10.00">formatter.rs</text>
<text xml:space="preserve" text-anchor="middle" x="370.62" y="-480.5" font-family="Times,serif" font-size="10.00">16 fn</text>
</g>
<!-- mapper&#45;core/nyx&#45;navigator/src/main.rs&#45;&gt;mapper&#45;core/nyx&#45;navigator/src/formatter.rs -->
<g id="edge15" class="edge">
<title>mapper&#45;core/nyx&#45;navigator/src/main.rs&#45;&gt;mapper&#45;core/nyx&#45;navigator/src/formatter.rs</title>
<path fill="none" stroke="#666666" d="M293.57,-428.15C306.81,-438.92 323.8,-452.73 338.35,-464.57"/>
<polygon fill="#666666" stroke="#666666" points="335.91,-467.09 345.88,-470.69 340.33,-461.66 335.91,-467.09"/>
</g>
<!-- mapper&#45;core/nyx&#45;navigator/src/sync.rs&#45;&gt;mapper&#45;core/nyx&#45;navigator/src/scanner.rs -->
<g id="edge23" class="edge">
<title>mapper&#45;core/nyx&#45;navigator/src/sync.rs&#45;&gt;mapper&#45;core/nyx&#45;navigator/src/scanner.rs</title>
<path fill="none" stroke="#666666" d="M397.67,-352.48C406.78,-349.85 417.2,-346.84 427.08,-343.98"/>
<polygon fill="#666666" stroke="#666666" points="427.83,-347.41 436.46,-341.28 425.88,-340.69 427.83,-347.41"/>
</g>
<!-- mapper&#45;core/nyx&#45;navigator/src/sync.rs&#45;&gt;mapper&#45;core/nyx&#45;navigator/src/memory.rs -->
<g id="edge22" class="edge">
<title>mapper&#45;core/nyx&#45;navigator/src/sync.rs&#45;&gt;mapper&#45;core/nyx&#45;navigator/src/memory.rs</title>
<path fill="none" stroke="#666666" d="M391.91,-378.23C404.81,-389.81 421.72,-405 436.03,-417.86"/>
<polygon fill="#666666" stroke="#666666" points="433.65,-420.43 443.43,-424.51 438.33,-415.22 433.65,-420.43"/>
</g>
<!-- mapper&#45;core/nyx&#45;navigator/src/diagram.rs -->
<g id="node6" class="node">
<title>mapper&#45;core/nyx&#45;navigator/src/diagram.rs</title>
<polygon fill="#ff9966" stroke="#333333" points="192.12,-90 134.12,-90 134.12,-54 192.12,-54 192.12,-90"/>
<text xml:space="preserve" text-anchor="middle" x="163.12" y="-73.75" font-family="Times,serif" font-size="10.00">diagram.rs</text>
<text xml:space="preserve" text-anchor="middle" x="163.12" y="-62.5" font-family="Times,serif" font-size="10.00">65 fn</text>
</g>
<!-- mapper&#45;core/nyx&#45;navigator/src/diagram.rs&#45;&gt;mapper&#45;core/nyx&#45;navigator/src/api.rs -->
<g id="edge5" class="edge">
<title>mapper&#45;core/nyx&#45;navigator/src/diagram.rs&#45;&gt;mapper&#45;core/nyx&#45;navigator/src/api.rs</title>
<path fill="none" stroke="#666666" d="M192.57,-85.53C204.95,-91.42 219.61,-98.39 232.78,-104.65"/>
<polygon fill="#666666" stroke="#666666" points="231.04,-107.7 241.58,-108.84 234.05,-101.38 231.04,-107.7"/>
</g>
<!-- mapper&#45;core/nyx&#45;navigator/src/diagram.rs&#45;&gt;mapper&#45;core/nyx&#45;navigator/src/layers.rs -->
<g id="edge6" class="edge">
<title>mapper&#45;core/nyx&#45;navigator/src/diagram.rs&#45;&gt;mapper&#45;core/nyx&#45;navigator/src/layers.rs</title>
<path fill="none" stroke="#666666" d="M192.27,-72C228.51,-72 291.61,-72 331.96,-72"/>
<polygon fill="#666666" stroke="#666666" points="331.93,-75.5 341.93,-72 331.93,-68.5 331.93,-75.5"/>
</g>
<!-- mapper&#45;core/nyx&#45;navigator/src/lib.rs -->
<g id="node8" class="node">
<title>mapper&#45;core/nyx&#45;navigator/src/lib.rs</title>
<polygon fill="#ff9966" stroke="#333333" points="190.12,-252 136.12,-252 136.12,-216 190.12,-216 190.12,-252"/>
<text xml:space="preserve" text-anchor="middle" x="163.12" y="-235.75" font-family="Times,serif" font-size="10.00">lib.rs</text>
<text xml:space="preserve" text-anchor="middle" x="163.12" y="-224.5" font-family="Times,serif" font-size="10.00">43 fn</text>
</g>
<!-- mapper&#45;core/nyx&#45;navigator/src/lib.rs&#45;&gt;mapper&#45;core/nyx&#45;navigator/src/api.rs -->
<g id="edge12" class="edge">
<title>mapper&#45;core/nyx&#45;navigator/src/lib.rs&#45;&gt;mapper&#45;core/nyx&#45;navigator/src/api.rs</title>
<path fill="none" stroke="#666666" d="M190.26,-216.46C193.96,-213.49 197.57,-210.3 200.75,-207 220.49,-186.48 218.52,-175.87 236.75,-154 238.32,-152.12 239.98,-150.23 241.69,-148.36"/>
<polygon fill="#666666" stroke="#666666" points="243.92,-151.09 248.31,-141.45 238.86,-146.25 243.92,-151.09"/>
</g>
<!-- mapper&#45;core/nyx&#45;navigator/src/lib.rs&#45;&gt;mapper&#45;core/nyx&#45;navigator/src/mapper.rs -->
<g id="edge13" class="edge">
<title>mapper&#45;core/nyx&#45;navigator/src/lib.rs&#45;&gt;mapper&#45;core/nyx&#45;navigator/src/mapper.rs</title>
<path fill="none" stroke="#666666" d="M189.14,-215.63C205.89,-203.76 226.67,-189.98 236.75,-187 267.7,-177.86 304.47,-179.9 331.48,-183.63"/>
<polygon fill="#666666" stroke="#666666" points="330.87,-187.07 341.28,-185.13 331.93,-180.16 330.87,-187.07"/>
</g>
<!-- mapper&#45;core/nyx&#45;navigator/src/lib.rs&#45;&gt;mapper&#45;core/nyx&#45;navigator/src/scanner.rs -->
<g id="edge14" class="edge">
<title>mapper&#45;core/nyx&#45;navigator/src/lib.rs&#45;&gt;mapper&#45;core/nyx&#45;navigator/src/scanner.rs</title>
<path fill="none" stroke="#666666" d="M190.61,-237.28C244.36,-244.23 364.31,-261.24 401.5,-279 415.74,-285.8 429.37,-296.58 440.34,-306.73"/>
<polygon fill="#666666" stroke="#666666" points="437.82,-309.16 447.44,-313.6 442.69,-304.13 437.82,-309.16"/>
</g>
<!-- mapper&#45;core/nyx&#45;navigator/src/formatter.rs&#45;&gt;mapper&#45;core/nyx&#45;navigator/src/memory.rs -->
<g id="edge9" class="edge">
<title>mapper&#45;core/nyx&#45;navigator/src/formatter.rs&#45;&gt;mapper&#45;core/nyx&#45;navigator/src/memory.rs</title>
<path fill="none" stroke="#666666" d="M401.98,-475.07C409.93,-471.15 418.6,-466.89 426.9,-462.8"/>
<polygon fill="#666666" stroke="#666666" points="428.35,-465.99 435.78,-458.44 425.26,-459.71 428.35,-465.99"/>
</g>
<!-- mapper&#45;core/nyx&#45;navigator/src/html_export.rs -->
<g id="node11" class="node">
<title>mapper&#45;core/nyx&#45;navigator/src/html_export.rs</title>
<polygon fill="#99ff99" stroke="#333333" points="200.75,-36 125.5,-36 125.5,0 200.75,0 200.75,-36"/>
<text xml:space="preserve" text-anchor="middle" x="163.12" y="-19.75" font-family="Times,serif" font-size="10.00">html_export.rs</text>
<text xml:space="preserve" text-anchor="middle" x="163.12" y="-8.5" font-family="Times,serif" font-size="10.00">8 fn</text>
</g>
<!-- mapper&#45;core/nyx&#45;navigator/src/html_export.rs&#45;&gt;mapper&#45;core/nyx&#45;navigator/src/api.rs -->
<g id="edge10" class="edge">
<title>mapper&#45;core/nyx&#45;navigator/src/html_export.rs&#45;&gt;mapper&#45;core/nyx&#45;navigator/src/api.rs</title>
<path fill="none" stroke="#666666" d="M190.27,-36.23C193.89,-39.05 197.48,-42.02 200.75,-45 217.66,-60.42 234.77,-79.65 247.66,-95.04"/>
<polygon fill="#666666" stroke="#666666" points="244.7,-96.95 253.76,-102.43 250.09,-92.49 244.7,-96.95"/>
</g>
<!-- mapper&#45;core/nyx&#45;navigator/src/html_export.rs&#45;&gt;mapper&#45;core/nyx&#45;navigator/src/layers.rs -->
<g id="edge11" class="edge">
<title>mapper&#45;core/nyx&#45;navigator/src/html_export.rs&#45;&gt;mapper&#45;core/nyx&#45;navigator/src/layers.rs</title>
<path fill="none" stroke="#666666" d="M200.86,-27.65C238.01,-37.41 295.1,-52.42 332.41,-62.22"/>
<polygon fill="#666666" stroke="#666666" points="331.29,-65.54 341.85,-64.7 333.07,-58.77 331.29,-65.54"/>
</g>
<!-- mapper&#45;core/nyx&#45;navigator/src/call_graph.rs -->
<g id="node12" class="node">
<title>mapper&#45;core/nyx&#45;navigator/src/call_graph.rs</title>
<polygon fill="#99ff99" stroke="#333333" points="197.38,-198 128.88,-198 128.88,-162 197.38,-162 197.38,-198"/>
<text xml:space="preserve" text-anchor="middle" x="163.12" y="-181.75" font-family="Times,serif" font-size="10.00">call_graph.rs</text>
<text xml:space="preserve" text-anchor="middle" x="163.12" y="-170.5" font-family="Times,serif" font-size="10.00">16 fn</text>
</g>
<!-- mapper&#45;core/nyx&#45;navigator/src/call_graph.rs&#45;&gt;mapper&#45;core/nyx&#45;navigator/src/api.rs -->
<g id="edge4" class="edge">
<title>mapper&#45;core/nyx&#45;navigator/src/call_graph.rs&#45;&gt;mapper&#45;core/nyx&#45;navigator/src/api.rs</title>
<path fill="none" stroke="#666666" d="M197.39,-161.65C208.74,-155.39 221.49,-148.35 233.06,-141.97"/>
<polygon fill="#666666" stroke="#666666" points="234.47,-145.19 241.53,-137.29 231.09,-139.06 234.47,-145.19"/>
</g>
<!-- mapper&#45;core/nyx&#45;navigator/src/diagram_export.rs -->
<g id="node13" class="node">
<title>mapper&#45;core/nyx&#45;navigator/src/diagram_export.rs</title>
<polygon fill="#99ff99" stroke="#333333" points="89.5,-90 0,-90 0,-54 89.5,-54 89.5,-90"/>
<text xml:space="preserve" text-anchor="middle" x="44.75" y="-73.75" font-family="Times,serif" font-size="10.00">diagram_export.rs</text>
<text xml:space="preserve" text-anchor="middle" x="44.75" y="-62.5" font-family="Times,serif" font-size="10.00">5 fn</text>
</g>
<!-- mapper&#45;core/nyx&#45;navigator/src/diagram_export.rs&#45;&gt;mapper&#45;core/nyx&#45;navigator/src/diagram.rs -->
<g id="edge7" class="edge">
<title>mapper&#45;core/nyx&#45;navigator/src/diagram_export.rs&#45;&gt;mapper&#45;core/nyx&#45;navigator/src/diagram.rs</title>
<path fill="none" stroke="#666666" d="M89.75,-72C100.5,-72 111.95,-72 122.49,-72"/>
<polygon fill="#666666" stroke="#666666" points="122.4,-75.5 132.4,-72 122.4,-68.5 122.4,-75.5"/>
</g>
<!-- mapper&#45;core/nyx&#45;navigator/src/extractor.rs -->
<g id="node14" class="node">
<title>mapper&#45;core/nyx&#45;navigator/src/extractor.rs</title>
<polygon fill="#99ff99" stroke="#333333" points="300.75,-232 239.75,-232 239.75,-196 300.75,-196 300.75,-232"/>
<text xml:space="preserve" text-anchor="middle" x="270.25" y="-215.75" font-family="Times,serif" font-size="10.00">extractor.rs</text>
<text xml:space="preserve" text-anchor="middle" x="270.25" y="-204.5" font-family="Times,serif" font-size="10.00">17 fn</text>
</g>
<!-- mapper&#45;core/nyx&#45;navigator/src/extractor.rs&#45;&gt;mapper&#45;core/nyx&#45;navigator/src/mapper.rs -->
<g id="edge8" class="edge">
<title>mapper&#45;core/nyx&#45;navigator/src/extractor.rs&#45;&gt;mapper&#45;core/nyx&#45;navigator/src/mapper.rs</title>
<path fill="none" stroke="#666666" d="M301.03,-207.04C310.73,-204.77 321.62,-202.22 331.83,-199.84"/>
<polygon fill="#666666" stroke="#666666" points="332.54,-203.27 341.48,-197.58 330.94,-196.45 332.54,-203.27"/>
</g>
<!-- mapper&#45;core/nyx&#45;navigator/src/mcp.rs -->
<g id="node15" class="node">
<title>mapper&#45;core/nyx&#45;navigator/src/mcp.rs</title>
<polygon fill="#99ff99" stroke="#333333" points="190.12,-144 136.12,-144 136.12,-108 190.12,-108 190.12,-144"/>
<text xml:space="preserve" text-anchor="middle" x="163.12" y="-127.75" font-family="Times,serif" font-size="10.00">mcp.rs</text>
<text xml:space="preserve" text-anchor="middle" x="163.12" y="-116.5" font-family="Times,serif" font-size="10.00">34 fn</text>
</g>
<!-- mapper&#45;core/nyx&#45;navigator/src/mcp.rs&#45;&gt;mapper&#45;core/nyx&#45;navigator/src/api.rs -->
<g id="edge20" class="edge">
<title>mapper&#45;core/nyx&#45;navigator/src/mcp.rs&#45;&gt;mapper&#45;core/nyx&#45;navigator/src/api.rs</title>
<path fill="none" stroke="#666666" d="M190.38,-125C202.8,-124.53 217.86,-123.96 231.47,-123.44"/>
<polygon fill="#666666" stroke="#666666" points="231.59,-126.94 241.45,-123.06 231.33,-119.94 231.59,-126.94"/>
</g>
<!-- mapper&#45;core/nyx&#45;navigator/src/search.rs -->
<g id="node16" class="node">
<title>mapper&#45;core/nyx&#45;navigator/src/search.rs</title>
<polygon fill="#99ff99" stroke="#333333" points="397.62,-324 343.62,-324 343.62,-288 397.62,-288 397.62,-324"/>
<text xml:space="preserve" text-anchor="middle" x="370.62" y="-307.75" font-family="Times,serif" font-size="10.00">search.rs</text>
<text xml:space="preserve" text-anchor="middle" x="370.62" y="-296.5" font-family="Times,serif" font-size="10.00">38 fn</text>
</g>
<!-- mapper&#45;core/nyx&#45;navigator/src/search.rs&#45;&gt;mapper&#45;core/nyx&#45;navigator/src/scanner.rs -->
<g id="edge21" class="edge">
<title>mapper&#45;core/nyx&#45;navigator/src/search.rs&#45;&gt;mapper&#45;core/nyx&#45;navigator/src/scanner.rs</title>
<path fill="none" stroke="#666666" d="M397.67,-313.52C406.78,-316.15 417.2,-319.16 427.08,-322.02"/>
<polygon fill="#666666" stroke="#666666" points="425.88,-325.31 436.46,-324.72 427.83,-318.59 425.88,-325.31"/>
</g>
<!-- mapper&#45;core/nyx&#45;navigator/src/webhooks.rs -->
<g id="node17" class="node">
<title>mapper&#45;core/nyx&#45;navigator/src/webhooks.rs</title>
<polygon fill="#99ff99" stroke="#333333" points="303.75,-374 236.75,-374 236.75,-338 303.75,-338 303.75,-374"/>
<text xml:space="preserve" text-anchor="middle" x="270.25" y="-357.75" font-family="Times,serif" font-size="10.00">webhooks.rs</text>
<text xml:space="preserve" text-anchor="middle" x="270.25" y="-346.5" font-family="Times,serif" font-size="10.00">29 fn</text>
</g>
<!-- mapper&#45;core/nyx&#45;navigator/src/webhooks.rs&#45;&gt;mapper&#45;core/nyx&#45;navigator/src/sync.rs -->
<g id="edge24" class="edge">
<title>mapper&#45;core/nyx&#45;navigator/src/webhooks.rs&#45;&gt;mapper&#45;core/nyx&#45;navigator/src/sync.rs</title>
<path fill="none" stroke="#666666" d="M304.01,-357.33C312.97,-357.7 322.75,-358.09 331.96,-358.47"/>
<polygon fill="#666666" stroke="#666666" points="331.57,-361.96 341.71,-358.86 331.86,-354.96 331.57,-361.96"/>
</g>
</g>
</svg>
