<?xml version="1.0" encoding="UTF-8" standalone="no"?>
<!DOCTYPE svg PUBLIC "-//W3C//DTD SVG 1.1//EN"
 "http://www.w3.org/Graphics/SVG/1.1/DTD/svg11.dtd">
<!-- Generated by graphviz version 14.1.5 (20260411.2331)
 -->
<!-- Title: codecartographer Pages: 1 -->
<svg width="586pt" height="1268pt"
 viewBox="0.00 0.00 586.00 1268.00" xmlns="http://www.w3.org/2000/svg" xmlns:xlink="http://www.w3.org/1999/xlink">
<g id="graph0" class="graph" transform="scale(1 1) rotate(0) translate(4 1263.53)">
<title>codecartographer</title>
<polygon fill="white" stroke="none" points="-4,4 -4,-1263.53 582,-1263.53 582,4 -4,4"/>
<!-- src/main.rs -->
<g id="node1" class="node">
<title>src/main.rs</title>
<polygon fill="#99ff99" stroke="#333333" points="54,-475.96 0,-475.96 0,-439.96 54,-439.96 54,-475.96"/>
<text xml:space="preserve" text-anchor="middle" x="27" y="-459.71" font-family="Times,serif" font-size="10.00">main.rs</text>
<text xml:space="preserve" text-anchor="middle" x="27" y="-448.46" font-family="Times,serif" font-size="10.00">30 fn</text>
</g>
<!-- src/api.rs -->
<g id="node3" class="node">
<title>src/api.rs</title>
<polygon fill="#ff9966" stroke="#333333" points="387.25,-662.96 333.25,-662.96 333.25,-626.96 387.25,-626.96 387.25,-662.96"/>
<text xml:space="preserve" text-anchor="middle" x="360.25" y="-646.71" font-family="Times,serif" font-size="10.00">api.rs</text>
<text xml:space="preserve" text-anchor="middle" x="360.25" y="-635.46" font-family="Times,serif" font-size="10.00">63 fn</text>
</g>
<!-- src/main.rs&#45;&gt;src/api.rs -->
<g id="edge31" class="edge">
<title>src/main.rs&#45;&gt;src/api.rs</title>
<path fill="none" stroke="#666666" d="M35.83,-476.14C45.62,-496.83 64.28,-530.32 90,-549.96 99.36,-557.1 279.69,-613.91 290.75,-617.96 301.06,-621.73 312.17,-626.02 322.38,-630.04"/>
<polygon fill="#666666" stroke="#666666" points="321.02,-633.27 331.61,-633.71 323.61,-626.77 321.02,-633.27"/>
</g>
<!-- src/mapper.rs -->
<g id="node4" class="node">
<title>src/mapper.rs</title>
<polygon fill="#ff9966" stroke="#333333" points="484.75,-448.96 429.75,-448.96 429.75,-412.96 484.75,-412.96 484.75,-448.96"/>
<text xml:space="preserve" text-anchor="middle" x="457.25" y="-432.71" font-family="Times,serif" font-size="10.00">mapper.rs</text>
<text xml:space="preserve" text-anchor="middle" x="457.25" y="-421.46" font-family="Times,serif" font-size="10.00">37 fn</text>
</g>
<!-- src/main.rs&#45;&gt;src/mapper.rs -->
<g id="edge43" class="edge">
<title>src/main.rs&#45;&gt;src/mapper.rs</title>
<path fill="none" stroke="#666666" d="M30.27,-439.78C36.74,-391.32 56.93,-261.06 90,-235.96 144.91,-194.28 343.09,-252.21 393.75,-298.96 423.85,-326.74 440.85,-372.02 449.3,-401.66"/>
<polygon fill="#666666" stroke="#666666" points="445.86,-402.34 451.83,-411.09 452.62,-400.53 445.86,-402.34"/>
</g>
<!-- src/diagram.rs -->
<g id="node5" class="node">
<title>src/diagram.rs</title>
<polygon fill="#ff9966" stroke="#333333" points="282.12,-770.96 224.12,-770.96 224.12,-734.96 282.12,-734.96 282.12,-770.96"/>
<text xml:space="preserve" text-anchor="middle" x="253.12" y="-754.71" font-family="Times,serif" font-size="10.00">diagram.rs</text>
<text xml:space="preserve" text-anchor="middle" x="253.12" y="-743.46" font-family="Times,serif" font-size="10.00">71 fn</text>
</g>
<!-- src/main.rs&#45;&gt;src/diagram.rs -->
<g id="edge35" class="edge">
<title>src/main.rs&#45;&gt;src/diagram.rs</title>
<path fill="none" stroke="#666666" d="M30.16,-476.38C36.61,-528.33 57.34,-674.38 90,-707.96 121.98,-740.83 175.72,-750.31 212.49,-752.72"/>
<polygon fill="#666666" stroke="#666666" points="212.12,-756.21 222.28,-753.2 212.46,-749.22 212.12,-756.21"/>
</g>
<!-- src/layers.rs -->
<g id="node6" class="node">
<title>src/layers.rs</title>
<polygon fill="#ff9966" stroke="#333333" points="484.25,-716.96 430.25,-716.96 430.25,-680.96 484.25,-680.96 484.25,-716.96"/>
<text xml:space="preserve" text-anchor="middle" x="457.25" y="-700.71" font-family="Times,serif" font-size="10.00">layers.rs</text>
<text xml:space="preserve" text-anchor="middle" x="457.25" y="-689.46" font-family="Times,serif" font-size="10.00">15 fn</text>
</g>
<!-- src/main.rs&#45;&gt;src/layers.rs -->
<g id="edge42" class="edge">
<title>src/main.rs&#45;&gt;src/layers.rs</title>
<path fill="none" stroke="#666666" d="M54.41,-454.32C104.36,-448.81 214.52,-443.23 290.75,-487.96 365.63,-531.89 419.23,-623.77 442.83,-670.44"/>
<polygon fill="#666666" stroke="#666666" points="439.55,-671.71 447.12,-679.13 445.83,-668.61 439.55,-671.71"/>
</g>
<!-- src/search.rs -->
<g id="node7" class="node">
<title>src/search.rs</title>
<polygon fill="#ff9966" stroke="#333333" points="280.12,-326.96 226.12,-326.96 226.12,-290.96 280.12,-290.96 280.12,-326.96"/>
<text xml:space="preserve" text-anchor="middle" x="253.12" y="-310.71" font-family="Times,serif" font-size="10.00">search.rs</text>
<text xml:space="preserve" text-anchor="middle" x="253.12" y="-299.46" font-family="Times,serif" font-size="10.00">38 fn</text>
</g>
<!-- src/main.rs&#45;&gt;src/search.rs -->
<g id="edge48" class="edge">
<title>src/main.rs&#45;&gt;src/search.rs</title>
<path fill="none" stroke="#666666" d="M30.98,-439.72C36.76,-410.78 52.38,-354.88 90,-327.96 126.23,-302.02 179.11,-300.78 214.53,-303.68"/>
<polygon fill="#666666" stroke="#666666" points="214.01,-307.15 224.31,-304.64 214.7,-300.18 214.01,-307.15"/>
</g>
<!-- src/sync.rs -->
<g id="node8" class="node">
<title>src/sync.rs</title>
<polygon fill="#ff9966" stroke="#333333" points="484.25,-198.96 430.25,-198.96 430.25,-162.96 484.25,-162.96 484.25,-198.96"/>
<text xml:space="preserve" text-anchor="middle" x="457.25" y="-182.71" font-family="Times,serif" font-size="10.00">sync.rs</text>
<text xml:space="preserve" text-anchor="middle" x="457.25" y="-171.46" font-family="Times,serif" font-size="10.00">9 fn</text>
</g>
<!-- src/main.rs&#45;&gt;src/sync.rs -->
<g id="edge49" class="edge">
<title>src/main.rs&#45;&gt;src/sync.rs</title>
<path fill="none" stroke="#666666" d="M28.97,-439.52C32.5,-380.37 46.79,-197.15 90,-160.96 141.76,-117.6 327.63,-140.29 393.75,-153.96 402.36,-155.74 411.25,-158.76 419.52,-162.16"/>
<polygon fill="#666666" stroke="#666666" points="418.02,-165.33 428.58,-166.16 420.84,-158.92 418.02,-165.33"/>
</g>
<!-- src/call_graph.rs -->
<g id="node9" class="node">
<title>src/call_graph.rs</title>
<polygon fill="#ff9966" stroke="#333333" points="287.38,-662.96 218.88,-662.96 218.88,-626.96 287.38,-626.96 287.38,-662.96"/>
<text xml:space="preserve" text-anchor="middle" x="253.12" y="-646.71" font-family="Times,serif" font-size="10.00">call_graph.rs</text>
<text xml:space="preserve" text-anchor="middle" x="253.12" y="-635.46" font-family="Times,serif" font-size="10.00">26 fn</text>
</g>
<!-- src/main.rs&#45;&gt;src/call_graph.rs -->
<g id="edge32" class="edge">
<title>src/main.rs&#45;&gt;src/call_graph.rs</title>
<path fill="none" stroke="#666666" d="M32.49,-476.26C40,-503.19 57.56,-553.46 90,-582.96 107.72,-599.07 165.92,-619.07 207.51,-631.92"/>
<polygon fill="#666666" stroke="#666666" points="206.46,-635.26 217.04,-634.83 208.5,-628.56 206.46,-635.26"/>
</g>
<!-- src/cross_call.rs -->
<g id="node10" class="node">
<title>src/cross_call.rs</title>
<polygon fill="#ff9966" stroke="#333333" points="167.5,-670.96 102,-670.96 102,-634.96 167.5,-634.96 167.5,-670.96"/>
<text xml:space="preserve" text-anchor="middle" x="134.75" y="-654.71" font-family="Times,serif" font-size="10.00">cross_call.rs</text>
<text xml:space="preserve" text-anchor="middle" x="134.75" y="-643.46" font-family="Times,serif" font-size="10.00">4 fn</text>
</g>
<!-- src/main.rs&#45;&gt;src/cross_call.rs -->
<g id="edge34" class="edge">
<title>src/main.rs&#45;&gt;src/cross_call.rs</title>
<path fill="none" stroke="#666666" d="M31.39,-476.26C38.05,-508.29 55.31,-575.45 90,-620.96 91.7,-623.18 93.59,-625.33 95.61,-627.37"/>
<polygon fill="#666666" stroke="#666666" points="92.98,-629.71 102.77,-633.76 97.64,-624.49 92.98,-629.71"/>
</g>
<!-- src/html_export.rs -->
<g id="node11" class="node">
<title>src/html_export.rs</title>
<polygon fill="#ff9966" stroke="#333333" points="290.75,-716.96 215.5,-716.96 215.5,-680.96 290.75,-680.96 290.75,-716.96"/>
<text xml:space="preserve" text-anchor="middle" x="253.12" y="-700.71" font-family="Times,serif" font-size="10.00">html_export.rs</text>
<text xml:space="preserve" text-anchor="middle" x="253.12" y="-689.46" font-family="Times,serif" font-size="10.00">8 fn</text>
</g>
<!-- src/main.rs&#45;&gt;src/html_export.rs -->
<g id="edge41" class="edge">
<title>src/main.rs&#45;&gt;src/html_export.rs</title>
<path fill="none" stroke="#666666" d="M30.49,-476.29C37.41,-524.5 58.53,-653.04 90,-679.96 121,-706.47 168.38,-709.18 203.93,-706.47"/>
<polygon fill="#666666" stroke="#666666" points="203.89,-709.98 213.52,-705.56 203.23,-703.02 203.89,-709.98"/>
</g>
<!-- src/scanner.rs -->
<g id="node12" class="node">
<title>src/scanner.rs</title>
<polygon fill="#ff9966" stroke="#333333" points="577.25,-309.96 521.5,-309.96 521.5,-273.96 577.25,-273.96 577.25,-309.96"/>
<text xml:space="preserve" text-anchor="middle" x="549.38" y="-293.71" font-family="Times,serif" font-size="10.00">scanner.rs</text>
<text xml:space="preserve" text-anchor="middle" x="549.38" y="-282.46" font-family="Times,serif" font-size="10.00">26 fn</text>
</g>
<!-- src/main.rs&#45;&gt;src/scanner.rs -->
<g id="edge47" class="edge">
<title>src/main.rs&#45;&gt;src/scanner.rs</title>
<path fill="none" stroke="#666666" d="M54.16,-449.61C139.5,-422.39 410.01,-336.1 510.4,-304.07"/>
<polygon fill="#666666" stroke="#666666" points="511.32,-307.45 519.78,-301.08 509.19,-300.78 511.32,-307.45"/>
</g>
<!-- src/answer.rs -->
<g id="node13" class="node">
<title>src/answer.rs</title>
<polygon fill="#ff9966" stroke="#333333" points="161.75,-372.96 107.75,-372.96 107.75,-336.96 161.75,-336.96 161.75,-372.96"/>
<text xml:space="preserve" text-anchor="middle" x="134.75" y="-356.71" font-family="Times,serif" font-size="10.00">answer.rs</text>
<text xml:space="preserve" text-anchor="middle" x="134.75" y="-345.46" font-family="Times,serif" font-size="10.00">16 fn</text>
</g>
<!-- src/main.rs&#45;&gt;src/answer.rs -->
<g id="edge30" class="edge">
<title>src/main.rs&#45;&gt;src/answer.rs</title>
<path fill="none" stroke="#666666" d="M42.02,-439.75C53.98,-424.79 72.03,-403.44 90,-386.96 92.7,-384.48 95.6,-382.01 98.57,-379.61"/>
<polygon fill="#666666" stroke="#666666" points="100.59,-382.47 106.36,-373.59 96.31,-376.93 100.59,-382.47"/>
</g>
<!-- src/diagram_export.rs -->
<g id="node14" class="node">
<title>src/diagram_export.rs</title>
<polygon fill="#ff9966" stroke="#333333" points="179.5,-962.96 90,-962.96 90,-926.96 179.5,-926.96 179.5,-962.96"/>
<text xml:space="preserve" text-anchor="middle" x="134.75" y="-946.71" font-family="Times,serif" font-size="10.00">diagram_export.rs</text>
<text xml:space="preserve" text-anchor="middle" x="134.75" y="-935.46" font-family="Times,serif" font-size="10.00">5 fn</text>
</g>
<!-- src/main.rs&#45;&gt;src/diagram_export.rs -->
<g id="edge36" class="edge">
<title>src/main.rs&#45;&gt;src/diagram_export.rs</title>
<path fill="none" stroke="#666666" d="M28.42,-476.43C30.39,-550 40.57,-822.33 91.52,-916.65"/>
<polygon fill="#666666" stroke="#666666" points="88.5,-918.42 96.65,-925.19 94.5,-914.82 88.5,-918.42"/>
</g>
<!-- src/extractor.rs -->
<g id="node15" class="node">
<title>src/extractor.rs</title>
<polygon fill="#ff9966" stroke="#333333" points="165.25,-540.96 104.25,-540.96 104.25,-504.96 165.25,-504.96 165.25,-540.96"/>
<text xml:space="preserve" text-anchor="middle" x="134.75" y="-524.71" font-family="Times,serif" font-size="10.00">extractor.rs</text>
<text xml:space="preserve" text-anchor="middle" x="134.75" y="-513.46" font-family="Times,serif" font-size="10.00">17 fn</text>
</g>
<!-- src/main.rs&#45;&gt;src/extractor.rs -->
<g id="edge37" class="edge">
<title>src/main.rs&#45;&gt;src/extractor.rs</title>
<path fill="none" stroke="#666666" d="M54.41,-474.19C66.52,-481.64 81.13,-490.61 94.49,-498.83"/>
<polygon fill="#666666" stroke="#666666" points="92.3,-501.59 102.65,-503.84 95.97,-495.63 92.3,-501.59"/>
</g>
<!-- src/memory.rs -->
<g id="node16" class="node">
<title>src/memory.rs</title>
<polygon fill="#ff9966" stroke="#333333" points="578,-74.96 520.75,-74.96 520.75,-38.96 578,-38.96 578,-74.96"/>
<text xml:space="preserve" text-anchor="middle" x="549.38" y="-58.71" font-family="Times,serif" font-size="10.00">memory.rs</text>
<text xml:space="preserve" text-anchor="middle" x="549.38" y="-47.46" font-family="Times,serif" font-size="10.00">8 fn</text>
</g>
<!-- src/main.rs&#45;&gt;src/memory.rs -->
<g id="edge45" class="edge">
<title>src/main.rs&#45;&gt;src/memory.rs</title>
<path fill="none" stroke="#666666" d="M27.79,-439.54C27.36,-364.85 29.87,-85.8 90,-27.96 142.21,22.27 179.67,-10.96 252.12,-10.96 252.12,-10.96 252.12,-10.96 361.25,-10.96 413.93,-10.96 472.59,-28.36 509.96,-41.76"/>
<polygon fill="#666666" stroke="#666666" points="508.36,-44.9 518.95,-45.06 510.77,-38.33 508.36,-44.9"/>
</g>
<!-- src/reach.rs -->
<g id="node17" class="node">
<title>src/reach.rs</title>
<polygon fill="#ff9966" stroke="#333333" points="161.75,-280.96 107.75,-280.96 107.75,-244.96 161.75,-244.96 161.75,-280.96"/>
<text xml:space="preserve" text-anchor="middle" x="134.75" y="-264.71" font-family="Times,serif" font-size="10.00">reach.rs</text>
<text xml:space="preserve" text-anchor="middle" x="134.75" y="-253.46" font-family="Times,serif" font-size="10.00">28 fn</text>
</g>
<!-- src/main.rs&#45;&gt;src/reach.rs -->
<g id="edge46" class="edge">
<title>src/main.rs&#45;&gt;src/reach.rs</title>
<path fill="none" stroke="#666666" d="M31.39,-439.66C38.05,-407.62 55.31,-340.46 90,-294.96 92.55,-291.62 95.53,-288.47 98.73,-285.55"/>
<polygon fill="#666666" stroke="#666666" points="100.82,-288.36 106.36,-279.33 96.4,-282.94 100.82,-288.36"/>
</g>
<!-- src/class_graph.rs -->
<g id="node18" class="node">
<title>src/class_graph.rs</title>
<polygon fill="#ff9966" stroke="#333333" points="171.25,-908.96 98.25,-908.96 98.25,-872.96 171.25,-872.96 171.25,-908.96"/>
<text xml:space="preserve" text-anchor="middle" x="134.75" y="-892.71" font-family="Times,serif" font-size="10.00">class_graph.rs</text>
<text xml:space="preserve" text-anchor="middle" x="134.75" y="-881.46" font-family="Times,serif" font-size="10.00">14 fn</text>
</g>
<!-- src/main.rs&#45;&gt;src/class_graph.rs -->
<g id="edge33" class="edge">
<title>src/main.rs&#45;&gt;src/class_graph.rs</title>
<path fill="none" stroke="#666666" d="M28.79,-476.38C32.1,-546.87 46.81,-798.7 90,-863.96 90.07,-864.06 90.14,-864.16 90.2,-864.26"/>
<polygon fill="#666666" stroke="#666666" points="87.59,-866.59 96.88,-871.69 92.8,-861.91 87.59,-866.59"/>
</g>
<!-- src/formatter.rs -->
<g id="node19" class="node">
<title>src/formatter.rs</title>
<polygon fill="#ffffff" stroke="#333333" points="391.12,-74.96 329.38,-74.96 329.38,-38.96 391.12,-38.96 391.12,-74.96"/>
<text xml:space="preserve" text-anchor="middle" x="360.25" y="-58.71" font-family="Times,serif" font-size="10.00">formatter.rs</text>
<text xml:space="preserve" text-anchor="middle" x="360.25" y="-47.46" font-family="Times,serif" font-size="10.00">16 fn</text>
</g>
<!-- src/main.rs&#45;&gt;src/formatter.rs -->
<g id="edge38" class="edge">
<title>src/main.rs&#45;&gt;src/formatter.rs</title>
<path fill="none" stroke="#666666" d="M27.99,-439.48C28.39,-368.94 33.78,-117.97 90,-67.96 152.59,-12.28 259.35,-29.11 317.87,-44.25"/>
<polygon fill="#666666" stroke="#666666" points="316.88,-47.61 327.44,-46.84 318.7,-40.85 316.88,-47.61"/>
</g>
<!-- src/git_analysis.rs -->
<g id="node20" class="node">
<title>src/git_analysis.rs</title>
<polygon fill="#ff9966" stroke="#333333" points="172,-854.96 97.5,-854.96 97.5,-818.96 172,-818.96 172,-854.96"/>
<text xml:space="preserve" text-anchor="middle" x="134.75" y="-838.71" font-family="Times,serif" font-size="10.00">git_analysis.rs</text>
<text xml:space="preserve" text-anchor="middle" x="134.75" y="-827.46" font-family="Times,serif" font-size="10.00">10 fn</text>
</g>
<!-- src/main.rs&#45;&gt;src/git_analysis.rs -->
<g id="edge39" class="edge">
<title>src/main.rs&#45;&gt;src/git_analysis.rs</title>
<path fill="none" stroke="#666666" d="M29.25,-476.1C33.93,-540.06 52.2,-754.24 90,-809.96 90.07,-810.06 90.14,-810.16 90.21,-810.26"/>
<polygon fill="#666666" stroke="#666666" points="87.62,-812.62 96.95,-817.64 92.79,-807.9 87.62,-812.62"/>
</g>
<!-- src/mcp.rs -->
<g id="node21" class="node">
<title>src/mcp.rs</title>
<polygon fill="#ffffff" stroke="#333333" points="280.12,-532.96 226.12,-532.96 226.12,-496.96 280.12,-496.96 280.12,-532.96"/>
<text xml:space="preserve" text-anchor="middle" x="253.12" y="-516.71" font-family="Times,serif" font-size="10.00">mcp.rs</text>
<text xml:space="preserve" text-anchor="middle" x="253.12" y="-505.46" font-family="Times,serif" font-size="10.00">40 fn</text>
</g>
<!-- src/main.rs&#45;&gt;src/mcp.rs -->
<g id="edge44" class="edge">
<title>src/main.rs&#45;&gt;src/mcp.rs</title>
<path fill="none" stroke="#666666" d="M54.29,-464.47C84.53,-471.97 135.63,-484.72 179.5,-495.96 191.05,-498.92 203.62,-502.19 215.01,-505.17"/>
<polygon fill="#666666" stroke="#666666" points="213.9,-508.5 224.46,-507.65 215.67,-501.73 213.9,-508.5"/>
</g>
<!-- src/token_metrics.rs -->
<g id="node22" class="node">
<title>src/token_metrics.rs</title>
<polygon fill="#ff9966" stroke="#333333" points="176.12,-800.96 93.38,-800.96 93.38,-764.96 176.12,-764.96 176.12,-800.96"/>
<text xml:space="preserve" text-anchor="middle" x="134.75" y="-784.71" font-family="Times,serif" font-size="10.00">token_metrics.rs</text>
<text xml:space="preserve" text-anchor="middle" x="134.75" y="-773.46" font-family="Times,serif" font-size="10.00">27 fn</text>
</g>
<!-- src/main.rs&#45;&gt;src/token_metrics.rs -->
<g id="edge50" class="edge">
<title>src/main.rs&#45;&gt;src/token_metrics.rs</title>
<path fill="none" stroke="#666666" d="M27.52,-476.12C27.09,-524.79 31.57,-660.57 90,-750.96 91.33,-753.01 92.84,-754.98 94.48,-756.86"/>
<polygon fill="#666666" stroke="#666666" points="91.65,-758.99 101.27,-763.44 96.52,-753.96 91.65,-758.99"/>
</g>
<!-- src/webhooks.rs -->
<g id="node23" class="node">
<title>src/webhooks.rs</title>
<polygon fill="#ffffff" stroke="#333333" points="393.75,-198.96 326.75,-198.96 326.75,-162.96 393.75,-162.96 393.75,-198.96"/>
<text xml:space="preserve" text-anchor="middle" x="360.25" y="-182.71" font-family="Times,serif" font-size="10.00">webhooks.rs</text>
<text xml:space="preserve" text-anchor="middle" x="360.25" y="-171.46" font-family="Times,serif" font-size="10.00">29 fn</text>
</g>
<!-- src/main.rs&#45;&gt;src/webhooks.rs -->
<g id="edge51" class="edge">
<title>src/main.rs&#45;&gt;src/webhooks.rs</title>
<path fill="none" stroke="#666666" d="M29.72,-439.61C35.12,-386.44 53.54,-234.1 90,-202.96 152.85,-149.27 256.79,-159.08 315.44,-170.4"/>
<polygon fill="#666666" stroke="#666666" points="314.56,-173.79 325.06,-172.37 315.96,-166.94 314.56,-173.79"/>
</g>
<!-- src/global_config.rs -->
<g id="node24" class="node">
<title>src/global_config.rs</title>
<polygon fill="#ffffff" stroke="#333333" points="176.12,-112.96 93.38,-112.96 93.38,-76.96 176.12,-76.96 176.12,-112.96"/>
<text xml:space="preserve" text-anchor="middle" x="134.75" y="-96.71" font-family="Times,serif" font-size="10.00">global_config.rs</text>
<text xml:space="preserve" text-anchor="middle" x="134.75" y="-85.46" font-family="Times,serif" font-size="10.00">6 fn</text>
</g>
<!-- src/main.rs&#45;&gt;src/global_config.rs -->
<g id="edge40" class="edge">
<title>src/main.rs&#45;&gt;src/global_config.rs</title>
<path fill="none" stroke="#666666" d="M29.64,-439.73C35.44,-378.38 56.42,-180.26 90,-126.96 91.3,-124.89 92.79,-122.91 94.42,-121.02"/>
<polygon fill="#666666" stroke="#666666" points="96.47,-123.91 101.17,-114.42 91.58,-118.91 96.47,-123.91"/>
</g>
<!-- src/lib.rs -->
<g id="node2" class="node">
<title>src/lib.rs</title>
<polygon fill="#ff9966" stroke="#333333" points="54,-1027.96 0,-1027.96 0,-991.96 54,-991.96 54,-1027.96"/>
<text xml:space="preserve" text-anchor="middle" x="27" y="-1011.71" font-family="Times,serif" font-size="10.00">lib.rs</text>
<text xml:space="preserve" text-anchor="middle" x="27" y="-1000.46" font-family="Times,serif" font-size="10.00">45 fn</text>
</g>
<!-- src/lib.rs&#45;&gt;src/api.rs -->
<g id="edge16" class="edge">
<title>src/lib.rs&#45;&gt;src/api.rs</title>
<path fill="none" stroke="#666666" d="M34.14,-1028.34C42.7,-1050.64 60.57,-1087.21 90,-1102.96 125.07,-1121.73 146.63,-1125.37 179.5,-1102.96 327.49,-1002.06 353.64,-759.17 358.26,-674.6"/>
<polygon fill="#666666" stroke="#666666" points="361.75,-674.97 358.73,-664.81 354.75,-674.64 361.75,-674.97"/>
</g>
<!-- src/lib.rs&#45;&gt;src/mapper.rs -->
<g id="edge26" class="edge">
<title>src/lib.rs&#45;&gt;src/mapper.rs</title>
<path fill="none" stroke="#666666" d="M31.77,-1028.37C38.35,-1055.14 54.75,-1103.91 90,-1124.96 174.11,-1175.17 236.97,-1115.83 290.75,-1033.96 417.38,-841.18 447.82,-553.05 454.51,-460.62"/>
<polygon fill="#666666" stroke="#666666" points="457.98,-461.11 455.17,-450.89 451,-460.63 457.98,-461.11"/>
</g>
<!-- src/lib.rs&#45;&gt;src/diagram.rs -->
<g id="edge20" class="edge">
<title>src/lib.rs&#45;&gt;src/diagram.rs</title>
<path fill="none" stroke="#666666" d="M37.76,-1028.18C48.13,-1045.41 66.31,-1070.19 90,-1080.96 126.21,-1097.41 148.48,-1105.86 179.5,-1080.96 226.14,-1043.52 244.66,-855.56 250.18,-782.28"/>
<polygon fill="#666666" stroke="#666666" points="253.65,-782.89 250.88,-772.66 246.67,-782.38 253.65,-782.89"/>
</g>
<!-- src/lib.rs&#45;&gt;src/layers.rs -->
<g id="edge25" class="edge">
<title>src/lib.rs&#45;&gt;src/layers.rs</title>
<path fill="none" stroke="#666666" d="M27.73,-1028.4C28.28,-1066.99 35.7,-1155.88 90,-1194.96 144.79,-1234.38 343.12,-1239.6 393.75,-1194.96 428.97,-1163.89 449.31,-830.77 454.76,-728.59"/>
<polygon fill="#666666" stroke="#666666" points="458.24,-728.99 455.27,-718.82 451.25,-728.62 458.24,-728.99"/>
</g>
<!-- src/lib.rs&#45;&gt;src/search.rs -->
<g id="edge28" class="edge">
<title>src/lib.rs&#45;&gt;src/search.rs</title>
<path fill="none" stroke="#666666" d="M54.35,-1007.04C93.36,-1002.14 163.57,-990.89 179.5,-971.96 214.23,-930.7 208.08,-541.37 215.5,-487.96 222.89,-434.75 236.53,-373.6 244.92,-338.31"/>
<polygon fill="#666666" stroke="#666666" points="248.26,-339.39 247.19,-328.85 241.45,-337.75 248.26,-339.39"/>
</g>
<!-- src/lib.rs&#45;&gt;src/call_graph.rs -->
<g id="edge17" class="edge">
<title>src/lib.rs&#45;&gt;src/call_graph.rs</title>
<path fill="none" stroke="#666666" d="M54.34,-1018.33C88.01,-1027.22 145.93,-1036.1 179.5,-1004.96 231.72,-956.5 182.99,-754.9 217.16,-673.51"/>
<polygon fill="#666666" stroke="#666666" points="220.25,-675.16 221.6,-664.65 213.99,-672.02 220.25,-675.16"/>
</g>
<!-- src/lib.rs&#45;&gt;src/cross_call.rs -->
<g id="edge19" class="edge">
<title>src/lib.rs&#45;&gt;src/cross_call.rs</title>
<path fill="none" stroke="#666666" d="M31.44,-991.5C39.54,-949.21 61.32,-842.33 90,-755.96 98.56,-730.17 110.83,-701.81 120.19,-681.4"/>
<polygon fill="#666666" stroke="#666666" points="123.25,-683.13 124.29,-672.59 116.9,-680.18 123.25,-683.13"/>
</g>
<!-- src/lib.rs&#45;&gt;src/html_export.rs -->
<g id="edge24" class="edge">
<title>src/lib.rs&#45;&gt;src/html_export.rs</title>
<path fill="none" stroke="#666666" d="M54.49,-1027.9C87.79,-1048 144.76,-1073.97 179.5,-1042.96 230.01,-997.86 184.5,-805.73 217.15,-727.55"/>
<polygon fill="#666666" stroke="#666666" points="220.26,-729.17 221.62,-718.66 214,-726.03 220.26,-729.17"/>
</g>
<!-- src/lib.rs&#45;&gt;src/scanner.rs -->
<g id="edge27" class="edge">
<title>src/lib.rs&#45;&gt;src/scanner.rs</title>
<path fill="none" stroke="#666666" d="M27.54,-1028.45C27.59,-1069.71 33.85,-1169.71 90,-1221.96 143.96,-1272.18 178.41,-1256.96 252.12,-1256.96 252.12,-1256.96 252.12,-1256.96 361.25,-1256.96 458.96,-1256.96 531.61,-484.55 545.84,-321.83"/>
<polygon fill="#666666" stroke="#666666" points="549.32,-322.15 546.7,-311.88 542.35,-321.54 549.32,-322.15"/>
</g>
<!-- src/lib.rs&#45;&gt;src/diagram_export.rs -->
<g id="edge21" class="edge">
<title>src/lib.rs&#45;&gt;src/diagram_export.rs</title>
<path fill="none" stroke="#666666" d="M54.41,-993.72C66.52,-986.28 81.13,-977.3 94.49,-969.09"/>
<polygon fill="#666666" stroke="#666666" points="95.97,-972.29 102.65,-964.07 92.3,-966.33 95.97,-972.29"/>
</g>
<!-- src/lib.rs&#45;&gt;src/extractor.rs -->
<g id="edge22" class="edge">
<title>src/lib.rs&#45;&gt;src/extractor.rs</title>
<path fill="none" stroke="#666666" d="M29.38,-991.62C33.92,-935.77 50.41,-763.19 90,-625.96 97.49,-600.01 109.74,-571.87 119.38,-551.57"/>
<polygon fill="#666666" stroke="#666666" points="122.42,-553.33 123.62,-542.81 116.12,-550.28 122.42,-553.33"/>
</g>
<!-- src/lib.rs&#45;&gt;src/class_graph.rs -->
<g id="edge18" class="edge">
<title>src/lib.rs&#45;&gt;src/class_graph.rs</title>
<path fill="none" stroke="#666666" d="M37.25,-991.69C47.95,-971.83 67.08,-939.97 90,-917.96 90.6,-917.38 91.22,-916.8 91.85,-916.24"/>
<polygon fill="#666666" stroke="#666666" points="93.78,-919.18 99.42,-910.21 89.42,-913.7 93.78,-919.18"/>
</g>
<!-- src/lib.rs&#45;&gt;src/git_analysis.rs -->
<g id="edge23" class="edge">
<title>src/lib.rs&#45;&gt;src/git_analysis.rs</title>
<path fill="none" stroke="#666666" d="M31.89,-991.89C39.02,-962.28 56.62,-902.81 90,-863.96 90.25,-863.67 90.51,-863.38 90.76,-863.09"/>
<polygon fill="#666666" stroke="#666666" points="93.04,-865.75 98.02,-856.39 88.3,-860.6 93.04,-865.75"/>
</g>
<!-- src/lib.rs&#45;&gt;src/token_metrics.rs -->
<g id="edge29" class="edge">
<title>src/lib.rs&#45;&gt;src/token_metrics.rs</title>
<path fill="none" stroke="#666666" d="M29.4,-991.72C33.13,-954.04 46.25,-866.42 90,-809.96 90.15,-809.76 90.3,-809.57 90.46,-809.38"/>
<polygon fill="#666666" stroke="#666666" points="92.72,-812.07 97.31,-802.52 87.77,-807.12 92.72,-812.07"/>
</g>
<!-- src/api.rs&#45;&gt;src/mapper.rs -->
<g id="edge4" class="edge">
<title>src/api.rs&#45;&gt;src/mapper.rs</title>
<path fill="none" stroke="#666666" d="M369.93,-626.59C376.55,-612.51 385.85,-592.56 393.75,-574.96 411.67,-535.06 431.69,-488.59 444.13,-459.47"/>
<polygon fill="#666666" stroke="#666666" points="447.2,-461.17 447.91,-450.6 440.77,-458.42 447.2,-461.17"/>
</g>
<!-- src/api.rs&#45;&gt;src/layers.rs -->
<g id="edge3" class="edge">
<title>src/api.rs&#45;&gt;src/layers.rs</title>
<path fill="none" stroke="#666666" d="M387.71,-660C397.7,-665.68 409.24,-672.23 419.97,-678.33"/>
<polygon fill="#666666" stroke="#666666" points="418.19,-681.35 428.61,-683.25 421.65,-675.26 418.19,-681.35"/>
</g>
<!-- src/api.rs&#45;&gt;src/sync.rs -->
<g id="edge5" class="edge">
<title>src/api.rs&#45;&gt;src/sync.rs</title>
<path fill="none" stroke="#666666" d="M365.03,-626.48C379.62,-555.25 432.27,-298.06 450.21,-210.44"/>
<polygon fill="#666666" stroke="#666666" points="453.63,-211.22 452.2,-200.72 446.77,-209.81 453.63,-211.22"/>
</g>
<!-- src/diagram.rs&#45;&gt;src/api.rs -->
<g id="edge9" class="edge">
<title>src/diagram.rs&#45;&gt;src/api.rs</title>
<path fill="none" stroke="#666666" d="M280.73,-734.5C284.2,-731.76 287.63,-728.87 290.75,-725.96 308.29,-709.55 325.73,-688.84 338.63,-672.47"/>
<polygon fill="#666666" stroke="#666666" points="341.38,-674.64 344.74,-664.59 335.84,-670.35 341.38,-674.64"/>
</g>
<!-- src/diagram.rs&#45;&gt;src/layers.rs -->
<g id="edge10" class="edge">
<title>src/diagram.rs&#45;&gt;src/layers.rs</title>
<path fill="none" stroke="#666666" d="M282.23,-745.45C317.87,-735.93 379.43,-719.48 418.97,-708.92"/>
<polygon fill="#666666" stroke="#666666" points="419.77,-712.33 428.53,-706.36 417.96,-705.56 419.77,-712.33"/>
</g>
<!-- src/search.rs&#45;&gt;src/scanner.rs -->
<g id="edge55" class="edge">
<title>src/search.rs&#45;&gt;src/scanner.rs</title>
<path fill="none" stroke="#666666" d="M280.5,-307.43C332.6,-304.42 448.95,-297.7 509.73,-294.19"/>
<polygon fill="#666666" stroke="#666666" points="509.81,-297.69 519.59,-293.62 509.41,-290.7 509.81,-297.69"/>
</g>
<!-- src/sync.rs&#45;&gt;src/scanner.rs -->
<g id="edge57" class="edge">
<title>src/sync.rs&#45;&gt;src/scanner.rs</title>
<path fill="none" stroke="#666666" d="M473.43,-199.2C477.14,-203.69 481.1,-208.49 484.75,-212.96 498.77,-230.13 514.39,-249.51 526.64,-264.78"/>
<polygon fill="#666666" stroke="#666666" points="523.86,-266.91 532.84,-272.52 529.32,-262.53 523.86,-266.91"/>
</g>
<!-- src/sync.rs&#45;&gt;src/memory.rs -->
<g id="edge56" class="edge">
<title>src/sync.rs&#45;&gt;src/memory.rs</title>
<path fill="none" stroke="#666666" d="M471.55,-162.66C486.52,-142.06 511.02,-108.35 528.33,-84.54"/>
<polygon fill="#666666" stroke="#666666" points="531.08,-86.7 534.13,-76.55 525.42,-82.59 531.08,-86.7"/>
</g>
<!-- src/call_graph.rs&#45;&gt;src/api.rs -->
<g id="edge6" class="edge">
<title>src/call_graph.rs&#45;&gt;src/api.rs</title>
<path fill="none" stroke="#666666" d="M287.68,-644.96C298.44,-644.96 310.44,-644.96 321.49,-644.96"/>
<polygon fill="#666666" stroke="#666666" points="321.49,-648.46 331.49,-644.96 321.49,-641.46 321.49,-648.46"/>
</g>
<!-- src/cross_call.rs&#45;&gt;src/mapper.rs -->
<g id="edge8" class="edge">
<title>src/cross_call.rs&#45;&gt;src/mapper.rs</title>
<path fill="none" stroke="#666666" d="M162.25,-634.6C219.6,-594.88 355.26,-500.91 420.28,-455.87"/>
<polygon fill="#666666" stroke="#666666" points="422.25,-458.77 428.47,-450.2 418.26,-453.01 422.25,-458.77"/>
</g>
<!-- src/cross_call.rs&#45;&gt;src/call_graph.rs -->
<g id="edge7" class="edge">
<title>src/cross_call.rs&#45;&gt;src/call_graph.rs</title>
<path fill="none" stroke="#666666" d="M167.86,-650.75C180.03,-649.91 194.13,-648.94 207.27,-648.04"/>
<polygon fill="#666666" stroke="#666666" points="207.25,-651.55 216.99,-647.37 206.77,-644.57 207.25,-651.55"/>
</g>
<!-- src/html_export.rs&#45;&gt;src/api.rs -->
<g id="edge14" class="edge">
<title>src/html_export.rs&#45;&gt;src/api.rs</title>
<path fill="none" stroke="#666666" d="M290.01,-680.53C300.54,-675.12 312.06,-669.2 322.63,-663.77"/>
<polygon fill="#666666" stroke="#666666" points="324.18,-666.91 331.47,-659.23 320.98,-660.68 324.18,-666.91"/>
</g>
<!-- src/html_export.rs&#45;&gt;src/layers.rs -->
<g id="edge15" class="edge">
<title>src/html_export.rs&#45;&gt;src/layers.rs</title>
<path fill="none" stroke="#666666" d="M291.2,-698.96C327.5,-698.96 382.51,-698.96 418.91,-698.96"/>
<polygon fill="#666666" stroke="#666666" points="418.51,-702.46 428.51,-698.96 418.51,-695.46 418.51,-702.46"/>
</g>
<!-- src/answer.rs&#45;&gt;src/mapper.rs -->
<g id="edge1" class="edge">
<title>src/answer.rs&#45;&gt;src/mapper.rs</title>
<path fill="none" stroke="#666666" d="M161.98,-361.18C218.67,-374.62 352.82,-406.43 418.59,-422.03"/>
<polygon fill="#666666" stroke="#666666" points="417.65,-425.4 428.19,-424.3 419.26,-418.59 417.65,-425.4"/>
</g>
<!-- src/answer.rs&#45;&gt;src/search.rs -->
<g id="edge2" class="edge">
<title>src/answer.rs&#45;&gt;src/search.rs</title>
<path fill="none" stroke="#666666" d="M162.16,-344.52C177.93,-338.29 198.2,-330.27 215.5,-323.44"/>
<polygon fill="#666666" stroke="#666666" points="216.4,-326.84 224.41,-319.91 213.83,-320.33 216.4,-326.84"/>
</g>
<!-- src/diagram_export.rs&#45;&gt;src/diagram.rs -->
<g id="edge11" class="edge">
<title>src/diagram_export.rs&#45;&gt;src/diagram.rs</title>
<path fill="none" stroke="#666666" d="M170.33,-926.51C173.66,-923.91 176.8,-921.05 179.5,-917.96 214.58,-877.66 235.17,-817.74 244.99,-782.28"/>
<polygon fill="#666666" stroke="#666666" points="248.35,-783.29 247.53,-772.72 241.58,-781.49 248.35,-783.29"/>
</g>
<!-- src/extractor.rs&#45;&gt;src/mapper.rs -->
<g id="edge12" class="edge">
<title>src/extractor.rs&#45;&gt;src/mapper.rs</title>
<path fill="none" stroke="#666666" d="M165.54,-508.35C180.32,-501.5 198.58,-493.62 215.5,-487.96 285.68,-464.47 370.44,-446.78 418.37,-437.72"/>
<polygon fill="#666666" stroke="#666666" points="418.77,-441.21 427.96,-435.93 417.49,-434.32 418.77,-441.21"/>
</g>
<!-- src/reach.rs&#45;&gt;src/mapper.rs -->
<g id="edge53" class="edge">
<title>src/reach.rs&#45;&gt;src/mapper.rs</title>
<path fill="none" stroke="#666666" d="M161.99,-261.49C193.9,-260.73 248.69,-262.79 290.75,-281.96 352.27,-309.99 406.97,-369.25 435.46,-404"/>
<polygon fill="#666666" stroke="#666666" points="432.51,-405.91 441.5,-411.5 437.96,-401.52 432.51,-405.91"/>
</g>
<!-- src/reach.rs&#45;&gt;src/search.rs -->
<g id="edge54" class="edge">
<title>src/reach.rs&#45;&gt;src/search.rs</title>
<path fill="none" stroke="#666666" d="M162.16,-273.4C177.93,-279.63 198.2,-287.64 215.5,-294.48"/>
<polygon fill="#666666" stroke="#666666" points="213.83,-297.58 224.41,-298 216.4,-291.07 213.83,-297.58"/>
</g>
<!-- src/formatter.rs&#45;&gt;src/memory.rs -->
<g id="edge13" class="edge">
<title>src/formatter.rs&#45;&gt;src/memory.rs</title>
<path fill="none" stroke="#666666" d="M391.31,-56.96C423.34,-56.96 474.15,-56.96 509.27,-56.96"/>
<polygon fill="#666666" stroke="#666666" points="509.01,-60.46 519.01,-56.96 509.01,-53.46 509.01,-60.46"/>
</g>
<!-- src/mcp.rs&#45;&gt;src/api.rs -->
<g id="edge52" class="edge">
<title>src/mcp.rs&#45;&gt;src/api.rs</title>
<path fill="none" stroke="#666666" d="M268.96,-533.31C286.81,-555.37 316.91,-592.6 337.41,-617.95"/>
<polygon fill="#666666" stroke="#666666" points="334.53,-619.95 343.53,-625.52 339.97,-615.55 334.53,-619.95"/>
</g>
<!-- src/webhooks.rs&#45;&gt;src/sync.rs -->
<g id="edge58" class="edge">
<title>src/webhooks.rs&#45;&gt;src/sync.rs</title>
<path fill="none" stroke="#666666" d="M394.21,-180.96C402.06,-180.96 410.49,-180.96 418.54,-180.96"/>
<polygon fill="#666666" stroke="#666666" points="418.42,-184.46 428.42,-180.96 418.42,-177.46 418.42,-184.46"/>
</g>
</g>
</svg>
